<svg width="16" height="25" viewBox="0 0 16 25" fill="none" xmlns="http://www.w3.org/2000/svg">
<g clip-path="url(#clip0_263_383)">
<path d="M7.88939 -0.000325203C9.56165 -0.000325203 10.0871 1.21785 10.528 2.43412C10.7131 2.9506 15.0587 15.0369 15.1894 15.3997C15.2242 15.5009 15.2007 15.667 15.0475 15.7271C14.8933 15.7863 12.6354 16.678 12.5104 16.7257C12.3854 16.7744 12.2453 16.7038 12.2002 16.5768C12.1532 16.4517 11.216 13.8168 11.1108 13.5228H4.6699C4.56838 13.8168 3.61993 16.4575 3.57763 16.5768C3.53439 16.6981 3.39997 16.7802 3.26649 16.7257C3.13301 16.6723 0.866677 15.7806 0.731317 15.7271C0.601598 15.6756 0.542378 15.5257 0.587498 15.3997C0.747297 14.9472 5.0271 3.05466 5.24518 2.43412C5.67006 1.23599 6.21338 -0.000325203 7.88939 -0.000325203ZM0.243459 21.6261C0.108099 21.6261 0 21.7407 0 21.8801V24.705C0 24.8444 0.108099 24.957 0.243459 24.957H15.5287C15.6669 24.957 15.775 24.8444 15.775 24.705V21.8801C15.775 21.7407 15.6669 21.6261 15.5287 21.6261H0.243459ZM7.87435 3.94634L5.69732 10.5862H10.0871L7.90255 3.94634H7.87435ZM40.5421 14.8336C40.2215 14.9433 40.01 14.9701 39.7581 14.9701C39.2373 14.9701 38.9488 14.761 38.9488 14.2187C38.9488 13.6536 39.3154 13.4645 40.0354 13.4645C40.2112 13.4645 40.3841 13.4903 40.465 13.519V13.9237C40.465 14.36 40.4885 14.6464 40.5421 14.8336ZM42.3929 15.4808C42.0085 14.888 41.9079 14.5386 41.9079 13.791V12.2731C41.9079 11.4559 41.8139 11.1609 41.6014 10.863C41.3053 10.4411 40.8118 10.2578 39.9047 10.2578C39.2627 10.2578 38.6395 10.3284 38.036 10.485L38.2541 11.5638C38.6621 11.5055 39.0898 11.4559 39.3915 11.4559C40.355 11.4559 40.465 11.5972 40.465 12.3313V12.6053C40.2507 12.5471 40.01 12.5051 39.7308 12.5051C38.2804 12.5051 37.5143 13.2259 37.5143 14.4192C37.5143 15.5381 38.3331 16.1482 39.3304 16.1482C39.7026 16.1482 40.0918 16.0785 40.4001 15.9505C40.5862 15.8684 40.6671 15.8197 40.9077 15.6613C41.0525 15.8751 41.3429 16.0937 41.4614 16.1348L42.3929 15.4808ZM56.7401 14.8336C56.4177 14.9433 56.2099 14.9701 55.9561 14.9701C55.4335 14.9701 55.1412 14.761 55.1412 14.2187C55.1412 13.6536 55.5125 13.4645 56.2344 13.4645C56.4101 13.4645 56.584 13.4903 56.663 13.519V13.9237C56.663 14.36 56.6856 14.6464 56.7401 14.8336ZM58.5928 15.4808C58.2055 14.888 58.1068 14.5386 58.1068 13.791V12.2731C58.1068 11.4559 58.011 11.1609 57.7966 10.863C57.5043 10.4411 57.0099 10.2578 56.0999 10.2578C55.4589 10.2578 54.8319 10.3284 54.2284 10.485L54.4437 11.5638C54.8526 11.5055 55.2812 11.4559 55.5914 11.4559C56.5493 11.4559 56.663 11.5972 56.663 12.3313V12.6053C56.4487 12.5471 56.2099 12.5051 55.9251 12.5051C54.4728 12.5051 53.7039 13.2259 53.7039 14.4192C53.7039 15.5381 54.5245 16.1482 55.5266 16.1482C55.9035 16.1482 56.2889 16.0785 56.5944 15.9505C56.7833 15.8684 56.8613 15.8197 57.102 15.6613C57.2486 15.8751 57.5391 16.0937 57.6585 16.1348L58.5928 15.4808ZM69.8859 16.0212C69.8859 16.0212 69.0907 14.2999 68.8961 13.9085C68.6771 13.4674 68.4741 13.1629 68.0266 13.0531V13.0283C68.3265 12.97 68.5652 12.7858 68.8266 12.2225C69.0738 11.6736 69.1471 11.5552 69.2928 11.4244C69.4357 11.2945 69.6312 11.3413 69.6312 11.3413L69.7045 10.3265C69.4968 10.2979 69.2665 10.2969 69.0287 10.3103C68.6339 10.3341 68.4299 10.4496 68.2353 10.6482C68.083 10.8 67.9796 11.0272 67.8518 11.2879C67.7164 11.5724 67.6093 11.8015 67.4683 12.0908C67.3282 12.3877 67.2624 12.5213 66.8855 12.5213H66.6401V8.02571H65.1878V16.0212H66.6401V13.7223L66.8385 13.7185C67.2549 13.7185 67.3282 13.8245 67.5482 14.2703C67.8057 14.8021 68.2992 16.0212 68.2992 16.0212H69.8859ZM28.9735 16.0212H30.6495L28.1144 8.15936C27.8474 8.06867 27.5175 8.01234 27.165 8.01234C26.7805 8.01234 26.6433 8.06389 26.3425 8.15936L23.6597 16.0212H25.2681C25.2681 16.0212 25.4852 15.3319 25.7409 14.4775H28.5195C28.7677 15.3309 28.9735 16.0212 28.9735 16.0212ZM26.1488 13.159C26.1488 13.159 26.6132 11.5809 26.6856 11.3356C26.8698 10.6998 27.1499 9.68972 27.1499 9.68972H27.196C27.196 9.68972 27.4554 10.7361 27.6246 11.3241C27.6885 11.558 28.1322 13.159 28.1322 13.159H26.1488ZM44.867 12.2597C44.3547 12.2597 43.9383 12.6846 43.9383 13.2049C43.9383 13.729 44.3547 14.151 44.867 14.151C45.3802 14.151 45.7948 13.729 45.7948 13.2049C45.7948 12.6846 45.3802 12.2597 44.867 12.2597ZM32.6395 8.02571H31.1835V16.0202H32.6395V8.02571ZM61.5679 11.5284C62.3725 11.5456 62.4722 11.7146 62.4722 12.4001V16.0212H63.9151V12.2731C63.9151 11.4559 63.8211 11.1609 63.6068 10.863C63.3107 10.4411 62.7288 10.2578 61.7446 10.2578C60.7708 10.2578 60.1504 10.3628 59.3523 10.6043V16.0212H60.8103V11.5972C61.1929 11.5409 61.2605 11.5284 61.5679 11.5284ZM36.2406 7.88346C35.3307 7.88346 34.8353 8.06676 34.5439 8.48777C34.3296 8.78659 34.2347 9.08827 34.2347 9.90739V10.6043H33.5118V11.7996H34.2347V16.0212H35.6785L35.6748 11.7996H37.1139V10.6043H35.6748L35.6785 9.96372C35.6785 9.23052 35.7885 9.08827 36.7529 9.08827C36.8573 9.08827 36.9748 9.094 37.0998 9.10355L37.3273 7.95506C36.971 7.90732 36.6063 7.88346 36.2406 7.88346ZM47.8252 7.95792C48.3205 7.92833 49.4279 7.88632 50.1225 7.88632C50.2494 7.88632 50.381 7.88728 50.5126 7.89396C51.8784 7.89396 52.6614 8.90402 52.6614 10.0897C52.6614 10.8964 52.2977 11.432 51.4451 11.7509C52.4481 11.9762 52.9735 12.7714 52.9735 13.7443C52.9735 14.4584 52.7752 15.0255 52.4114 15.4121C51.9395 15.8837 51.2251 16.1482 50.2739 16.1482C49.4279 16.1482 48.3657 16.1214 47.8252 16.089V7.95792ZM50.1225 9.26775C49.8819 9.26775 49.5839 9.27252 49.2887 9.28303V11.2029H50.1234C50.4543 11.2029 50.7203 11.1093 50.9018 10.9289C51.0747 10.759 51.165 10.5184 51.165 10.2329C51.165 9.61907 50.8378 9.27157 50.2297 9.26775H50.1225ZM50.1526 14.7696H50.2156C50.9741 14.7696 51.4385 14.36 51.4441 13.5352C51.4366 13.2392 51.3248 12.9662 51.1245 12.7686C50.9055 12.5452 50.5953 12.4287 50.2315 12.4287H49.2887V14.761C49.5548 14.7667 49.848 14.7677 50.1526 14.7696Z" fill="#EE2A23"/>
</g>
<defs>
<clipPath id="clip0_263_383">
<rect width="16" height="25" fill="white"/>
</clipPath>
</defs>
</svg>
