<svg width="25" height="25" viewBox="0 0 25 25" fill="none" xmlns="http://www.w3.org/2000/svg">
<g clip-path="url(#clip0_263_392)">
<path fill-rule="evenodd" clip-rule="evenodd" d="M111.173 7.18009H113.626L113.614 11.0545H114.147L115.545 7.18009H118.211L116.303 12.2986L118.483 17.9621H115.604L114.194 13.6256H113.614L113.626 17.9621H111.173V7.18009ZM102.891 7.18009H105.332V11.0664H107.085V7.18009H109.526V17.9739H107.085V13.6493H105.332V17.9739H102.891V7.18009ZM94.372 17.9739H96.9194L97.2275 16.1137H98.9692L99.2773 17.9739H101.825L99.6801 7.19194H96.5284L94.372 17.9739ZM98.1043 10.4621L98.5664 13.7441H97.6303L98.1043 10.4621ZM87.5474 17.9621H90.5213C91.173 17.9621 93.8744 17.6896 93.8863 14.4194C93.8863 11.6706 91.7891 11.1967 90.4265 11.1967H89.9763V9.76303H93.282V7.18009H87.5237V17.9621H87.5474ZM89.9882 15.7938V13.3531H90.3436C90.6517 13.3531 91.4337 13.3649 91.4337 14.4787C91.4337 15.6043 90.6517 15.7938 90.3436 15.7938H89.9882ZM77.8555 7.18009H79.9763L81.8483 9.71564L83.7441 7.16825H85.8531V17.9621H83.3531V11.3863L81.8483 13.2701L80.3436 11.3863V17.9621H77.8436C77.8555 17.9621 77.8555 7.18009 77.8555 7.18009ZM72.6896 18.0924C75.6517 18.0924 76.6469 15.3199 76.6469 12.5592C76.6469 9.79858 75.6517 7.02607 72.6896 7.02607C69.7275 7.02607 68.7322 9.79858 68.7322 12.5592C68.7322 15.3199 69.7275 18.0924 72.6896 18.0924ZM72.6896 15.4739C71.801 15.4739 71.3626 14.4431 71.3626 12.5474C71.3626 10.6517 71.8128 9.62085 72.6896 9.62085C73.5782 9.62085 74.0166 10.6517 74.0166 12.5474C74.0166 14.455 73.5782 15.4739 72.6896 15.4739ZM61.481 17.9621H63.981V14.4076H64.8223C67.2986 14.4076 68.0569 12.1801 68.0569 10.7583C68.0569 9.37204 67.1682 7.16825 64.8223 7.16825H61.481V17.9621ZM63.981 9.54976H64.5735C65.1422 9.54976 65.4976 9.89337 65.4976 10.7938C65.4976 11.955 64.8934 12.0379 64.5735 12.0379H63.981V9.54976ZM53.2346 7.18009H60.0592V17.9739H57.5592V9.77488H55.7346V17.9621H53.2346V7.18009ZM48.1043 11.3507C48.5071 11.3507 49.2417 11.09 49.2417 10.2962C49.2417 9.36019 48.3886 9.30095 48.1398 9.30095C47.8555 9.30095 47.2986 9.34834 46.7654 9.609L46.7417 7.26303C47.5948 7.04976 48.1991 6.99052 48.9218 6.99052C50.9716 6.99052 51.8839 8.42417 51.8839 9.82228C51.8839 11.1848 51.1019 12.0024 50.3318 12.3223V12.4171C51.0664 12.654 52.0498 13.3531 52.0498 15.0118C52.0498 17.0498 50.628 18.1754 48.8152 18.1754C47.8436 18.1635 47.2156 18.0332 46.4455 17.6185L46.4929 15.3791C47.2038 15.6872 47.6777 15.7109 48.1517 15.7109C48.9573 15.7109 49.2773 15.1185 49.2773 14.6801C49.2773 14.0758 48.8863 13.673 48.0332 13.673H47.0261V11.3507H48.1043ZM38.2701 17.9621H40.7938L41.1137 16.09H42.8673L43.1754 17.9621H45.6991L43.5545 7.16825H40.4028L38.2701 17.9621ZM41.9905 10.4265L42.4645 13.7204H41.5047L41.9905 10.4265ZM33.436 7.18009H38.5664V9.86967H35.9834V17.9739H33.436V7.18009ZM12.5118 0C5.60427 0 0 5.60427 0 12.5118C0 19.3957 5.61611 25.0118 12.5118 25.0118C19.3957 25.0118 25.0118 19.4076 25.0118 12.5118C25.0118 5.60427 19.3957 0 12.5118 0ZM12.5118 24.3839C5.95972 24.3839 0.627962 19.0521 0.627962 12.5118C0.627962 5.95972 5.95972 0.627962 12.5118 0.627962C19.0521 0.627962 24.3839 5.95972 24.3839 12.5118C24.3839 19.0521 19.0521 24.3839 12.5118 24.3839Z" fill="#476BF0"/>
<path fill-rule="evenodd" clip-rule="evenodd" d="M7.36966 5.0231C10.391 3.68423 14.0758 3.76717 16.0545 4.64395C16.6825 4.92831 17.0972 5.10603 17.2867 5.44964C15.237 4.90461 14.3483 4.79798 12.6303 4.84537C10.1896 4.89276 6.94312 5.86433 5.69905 6.59892L5.15402 7.27428C6.94312 6.21978 10.2844 5.52073 12.1327 5.46148C14.1943 5.43779 15.8057 5.62736 17.2749 6.16054C17.1919 6.53968 17.0024 6.72926 16.6825 6.91883C10.782 5.88802 7.29857 7.1084 4.14691 9.15817L3.9218 9.83352C7.42891 7.41646 11.7417 6.75295 15.8886 7.4757C14.3957 7.99703 12.6185 8.11551 11.1374 8.45911C9.86966 8.74347 9.18246 8.83826 7.48815 9.40698C5.77014 9.9757 4.75118 10.5444 4.12322 11.2909C3.81516 11.6345 3.59004 12.0373 3.5308 12.4757C3.5071 12.7364 3.51895 12.9733 3.60189 13.1985C3.67298 13.3999 3.82701 13.6013 4.00473 13.8027C3.80331 14.1463 3.62559 14.5966 3.9218 15.1179C4.05213 15.3667 4.38388 15.6037 4.70379 15.8406L4.609 16.1013C4.56161 16.4094 4.52606 16.7648 4.72748 17.0729C5.07109 17.6179 5.49763 17.9852 6.16113 18.3288C6.26777 18.779 6.4218 19.1345 6.7654 19.4544C7.5 20.1297 9.14691 21.433 12.0853 21.6345C14.2891 21.7767 15.8531 21.1131 16.4573 20.8288L17.1801 20.4496C15.9479 20.9354 13.8863 21.2316 12.1919 21.0894C9.73933 20.888 7.53554 19.2885 7.26303 18.8146C7.34597 18.8738 7.46445 18.9094 7.55924 18.9567C10.4384 20.343 14.1469 21.1013 18.9099 19.1582L19.3009 18.779C14.9763 20.1179 11.1967 20.0823 7.1327 17.9496C7.18009 17.7482 7.26303 17.5705 7.4526 17.4283C8.49526 17.8904 9.49052 18.2695 10.7109 18.5065C12.1327 18.7672 13.7441 18.8264 15.0829 18.7672C16.4218 18.7079 19.0877 18.0444 20.3436 17.3809C20.4621 17.2861 20.5213 17.1084 20.628 16.9899C18.1754 17.8785 15.2488 18.3051 13.4834 18.1748C11.7654 18.0444 10.237 17.843 8.2109 16.9188C8.60189 16.7648 9.00474 16.6345 9.40758 16.516C10.7346 16.9188 12.0972 17.1676 13.6967 17.2387C15.2844 17.3098 19.0047 16.7174 21.3389 15.3075C21.4099 15.106 21.481 14.8809 21.481 14.8809C21.481 14.8809 18.2227 16.6226 14.5379 16.6226C12.8199 16.6226 11.7654 16.3738 10.9834 16.1842C12.7133 15.8643 14.9052 15.6037 17.3578 14.9876C18.6019 14.6676 20.1303 13.9449 20.8294 13.3406C21.4218 12.8075 21.8839 12.1084 21.7299 11.4094C21.6943 11.2198 21.4336 10.7695 21.1256 10.6155C21.4336 10.2245 21.3981 9.89276 21.3626 9.6084C21.327 9.38328 21.2322 9.14632 21.1019 8.93305C20.8886 8.64869 20.628 8.41172 20.3199 8.234C20.3791 7.92594 20.3436 7.61788 20.2014 7.33352C19.8934 6.8122 19.3483 6.36196 18.4123 5.88802C18.3649 5.69845 18.2464 5.44964 18.0569 5.21267C16.872 4.03968 14.9289 3.48281 13.3057 3.44727C13.2109 3.44727 13.128 3.44727 13.0332 3.44727C11.1256 3.44727 9.5853 3.87381 8.63744 4.32404C8.12796 4.53731 7.74881 4.76243 7.36966 5.0231ZM18.282 6.59892C18.6848 6.85959 19.1469 7.25058 19.2062 7.65343C18.7678 7.48755 18.3057 7.32167 17.8673 7.20319C18.0095 7.04916 18.2227 6.80035 18.282 6.59892ZM16.1137 8.41172C16.6114 8.22215 16.9431 8.02073 17.2275 7.78376C17.8791 7.96148 18.4834 8.17475 18.981 8.38802C18.8981 8.51836 18.4005 8.96859 18.2464 8.96859C18.2346 8.96859 18.2346 8.96859 18.2227 8.96859C17.5355 8.77902 16.9313 8.5539 16.1137 8.41172ZM20.0118 8.99229C20.4028 9.32404 20.5213 9.56101 20.3318 9.91646C20.0711 9.72689 19.7986 9.6321 19.4905 9.47807C19.6682 9.33589 19.846 9.18186 20.0118 8.99229ZM7.99763 10.3193C9.79857 9.78613 11.9194 9.38328 13.827 9.14632C15.1422 8.98044 15.8412 9.13447 17.0735 9.46622C13.8744 10.3193 10.7227 10.5918 7.71327 11.4804C5.28436 12.1795 4.64454 13.0681 4.6327 13.0681C3.56635 11.5871 7.28673 10.5326 7.99763 10.3193ZM9.70379 12.0966C12.3815 11.516 14.8578 11.1605 15.8886 10.8999C17.1327 10.5918 17.9976 10.3075 18.6019 10.0231C18.6256 9.9757 19.609 10.4615 19.7156 10.5681C19.3839 10.8406 18.9218 11.0776 18.4123 11.2435C16.8957 11.7885 14.1351 12.3691 12.6777 12.5942C11.2085 12.843 9.9763 13.0207 8.34123 13.4591C7.40521 13.7079 6.7654 13.9923 6.30331 14.3003C5.95971 14.0989 5.75829 14.0397 5.43838 13.779C6.56398 12.8193 8.86256 12.2861 9.70379 12.0966ZM9.02843 14.4425C11.5758 13.8146 13.8152 13.7079 16.9076 12.8667C18.4005 12.4757 19.4787 12.0492 20.1659 11.5397C20.2607 11.4567 20.3673 11.3738 20.4739 11.2909C21.3744 12.6771 17.9976 13.7435 15.699 14.2411C14.4313 14.5018 12.6659 14.8217 12.0853 14.9165C10.5806 15.1653 10.0948 15.2956 9.05213 15.5918C8.5308 15.3904 8.00947 15.1771 7.53554 14.9283C8.00947 14.7269 8.5308 14.5729 9.02843 14.4425ZM5.50947 14.9046C5.40284 14.9876 5.27251 15.0823 5.17772 15.1771C4.9526 15.0468 4.71564 14.7624 4.83412 14.5018C5.05924 14.6439 5.23696 14.7624 5.50947 14.9046ZM6.56398 15.4378C7.00237 15.6392 7.44075 15.8288 7.86729 16.0184C7.58293 16.125 7.31042 16.2553 7.06161 16.4094C6.718 16.2198 6.3744 16.0302 6.0308 15.8288C6.17298 15.6985 6.36255 15.5681 6.56398 15.4378ZM6.38625 16.9544C6.27962 17.0966 6.20853 17.215 6.17298 17.3572C5.80568 17.0492 5.63981 16.8122 5.65165 16.5278C5.90047 16.6937 6.14928 16.824 6.38625 16.9544Z" fill="#476BF0"/>
</g>
<defs>
<clipPath id="clip0_263_392">
<rect width="25" height="25" fill="white"/>
</clipPath>
</defs>
</svg>
