<svg width="33" height="30" viewBox="0 0 33 30" fill="none" xmlns="http://www.w3.org/2000/svg">
<g clip-path="url(#clip0_242_116)">
<path d="M14.8696 -0.0662455C15.0219 -0.0629455 15.164 -0.0119678 15.3006 0.0827129L29.0946 11.0827C29.412 11.3402 29.457 11.8153 29.2194 12.1254C28.9852 12.4311 28.4871 12.4801 28.1871 12.24L14.8469 1.60667L1.50663 12.24C1.20669 12.4801 0.722228 12.4293 0.485697 12.1254C0.250909 11.8238 0.276174 11.3228 0.599135 11.0827L5.77189 6.95771V0.667088C5.7719 0.472602 5.8484 0.286076 5.98455 0.148554C6.12069 0.011031 6.30534 -0.0662261 6.49788 -0.0662455H9.40189C9.59443 -0.0662261 9.77908 0.011031 9.91522 0.148554C10.0514 0.286076 10.1279 0.472602 10.1279 0.667088V3.48584L14.3931 0.0827129C14.5547 -0.0248048 14.7172 -0.0694538 14.8696 -0.0662455ZM8.67589 1.40042H7.22389V5.80042L8.67589 4.64313V1.40042ZM23.9219 9.79938L25.3739 10.9567V22.6671C25.3739 22.8616 25.2974 23.0481 25.1612 23.1856C25.0251 23.3231 24.8404 23.4004 24.6479 23.4004H17.7509C17.5583 23.4004 17.3737 23.3231 17.2375 23.1856C17.1014 23.0481 17.0249 22.8616 17.0249 22.6671V18.2671C17.0249 17.0356 16.0661 16.0671 14.8469 16.0671C13.6277 16.0671 12.6689 17.0356 12.6689 18.2671V22.6671C12.6689 22.8616 12.5924 23.0481 12.4562 23.1856C12.3201 23.3231 12.1354 23.4004 11.9429 23.4004H5.04589C4.85334 23.4004 4.66869 23.3231 4.53255 23.1856C4.3964 23.0481 4.3199 22.8616 4.31989 22.6671V10.9567L5.77189 9.79938V21.9338H11.2169V18.2671C11.2169 16.2484 12.8484 14.6004 14.8469 14.6004C16.8453 14.6004 18.4769 16.2484 18.4769 18.2671V21.9338H23.9219V9.79938Z" fill="#1E2B34"/>
</g>
<defs>
<clipPath id="clip0_242_116">
<rect width="33" height="30" fill="white"/>
</clipPath>
</defs>
</svg>
