<svg width="34" height="29" viewBox="0 0 34 29" fill="none" xmlns="http://www.w3.org/2000/svg">
<g clip-path="url(#clip0_242_85)">
<path d="M29.2778 0.5H0.944441C0.292774 0.5 -0.236115 1.032 -0.236115 1.6875V20.6875C-0.236115 21.343 0.292774 21.875 0.944441 21.875H29.2778C29.9294 21.875 30.4583 21.343 30.4583 20.6875V1.6875C30.4583 1.032 29.9294 0.5 29.2778 0.5ZM28.0972 2.875V6.4375H2.125V2.875H28.0972ZM2.125 19.5V8.8125H28.0972V19.5H2.125Z" fill="#1E2B34"/>
<path d="M8.02778 13.5625H5.66667C5.015 13.5625 4.48611 14.0945 4.48611 14.75C4.48611 15.4055 5.015 15.9375 5.66667 15.9375H8.02778C8.67945 15.9375 9.20834 15.4055 9.20834 14.75C9.20834 14.0945 8.67945 13.5625 8.02778 13.5625Z" fill="#1E2B34"/>
<path d="M13.9306 13.5625H11.5694C10.9178 13.5625 10.3889 14.0945 10.3889 14.75C10.3889 15.4055 10.9178 15.9375 11.5694 15.9375H13.9306C14.5822 15.9375 15.1111 15.4055 15.1111 14.75C15.1111 14.0945 14.5822 13.5625 13.9306 13.5625Z" fill="#1E2B34"/>
<path d="M19.8333 13.5625H17.4722C16.8205 13.5625 16.2917 14.0945 16.2917 14.75C16.2917 15.4055 16.8205 15.9375 17.4722 15.9375H19.8333C20.485 15.9375 21.0139 15.4055 21.0139 14.75C21.0139 14.0945 20.485 13.5625 19.8333 13.5625Z" fill="#1E2B34"/>
<path d="M25.7361 13.5625H23.375C22.7233 13.5625 22.1944 14.0945 22.1944 14.75C22.1944 15.4055 22.7233 15.9375 23.375 15.9375H25.7361C26.3878 15.9375 26.9166 15.4055 26.9166 14.75C26.9166 14.0945 26.3878 13.5625 25.7361 13.5625Z" fill="#1E2B34"/>
</g>
<defs>
<clipPath id="clip0_242_85">
<rect width="34" height="29" fill="white"/>
</clipPath>
</defs>
</svg>
