<svg width="26" height="25" viewBox="0 0 26 25" fill="none" xmlns="http://www.w3.org/2000/svg">
<g clip-path="url(#clip0_245_31)">
<path d="M22.176 0.852539H3.85063C1.75901 0.867383 0.072052 2.5663 0.072052 4.65807V20.8243C0.0868958 22.9159 1.78582 24.6029 3.87758 24.6029H22.176C24.2568 24.588 25.9397 22.9053 25.9545 20.8243V4.65807C25.9545 2.56644 24.2678 0.867394 22.176 0.852539ZM18.3974 15.4266C18.3974 16.081 18.0034 16.6721 17.3975 16.9231C16.7929 17.1727 16.0966 17.0351 15.6324 16.5722C15.1696 16.108 15.0319 15.4117 15.2816 14.8072C15.5325 14.2013 16.1236 13.8073 16.7781 13.8073C17.6727 13.8073 18.3974 14.5319 18.3974 15.4266ZM22.176 22.4434H3.85063C2.95325 22.4407 2.22188 21.7215 2.20434 20.8241V8.47966C2.78729 8.78732 3.43502 8.94792 4.09356 8.94927H21.9059C22.949 8.94927 23.7951 9.79535 23.7951 10.8385V11.1084H16.7782C14.3938 11.1084 12.4601 13.0421 12.4601 15.4266C12.4601 17.811 14.3938 19.7447 16.7782 19.7447H23.7951V20.8243C23.7776 21.7109 23.0625 22.4259 22.176 22.4434Z" fill="#ABFF1A"/>
</g>
<defs>
<clipPath id="clip0_245_31">
<rect width="26" height="25" fill="white"/>
</clipPath>
</defs>
</svg>
