<svg width="24" height="25" viewBox="0 0 24 25" fill="none" xmlns="http://www.w3.org/2000/svg">
<g clip-path="url(#clip0_222_294)">
<path d="M12.7527 13.1082C10.6576 13.1082 8.95309 11.3706 8.95309 9.23816C8.95309 7.1042 10.6591 5.36816 12.7527 5.36816C14.8479 5.36816 16.5524 7.10572 16.5524 9.23816C16.5524 11.3721 14.8464 13.1082 12.7527 13.1082ZM12.7527 6.84816C11.4587 6.84816 10.4076 7.92165 10.4076 9.23676C10.4076 10.5519 11.4587 11.6253 12.7527 11.6253C14.0468 11.6253 15.0979 10.5548 15.0979 9.23676C15.0979 7.91876 14.0468 6.84816 12.7527 6.84816Z" fill="#666666"/>
<path d="M17.2771 19.0786H8.23017C7.82959 19.0786 7.5029 18.7459 7.5029 18.3379V16.2531C7.5029 13.701 9.53984 11.6279 12.044 11.6279H13.4616C15.9673 11.6279 18.0027 13.7026 18.0027 16.2531V18.3379C18.0027 18.7459 17.676 19.0786 17.2754 19.0786H17.2771ZM8.95599 17.5972H16.5484V16.2531C16.5484 14.5199 15.1634 13.1093 13.4617 13.1093H12.0441C10.3424 13.1093 8.95744 14.5199 8.95744 16.2531V17.5972H8.95599Z" fill="#666666"/>
<path d="M19.1051 24.7292H6.39926C3.97312 24.7292 1.99854 22.7182 1.99854 20.247L1.99996 4.19511C1.99996 1.72404 3.97439 -0.287109 6.40068 -0.287109H19.1065C21.5326 -0.287109 23.5072 1.72389 23.5072 4.19511V20.2514C23.5072 22.7225 21.5328 24.7336 19.1065 24.7336L19.1051 24.7292ZM6.40035 1.19622C4.77534 1.19622 3.45432 2.54026 3.45432 4.19682V20.2531C3.45432 21.9082 4.77392 23.2537 6.40035 23.2537H19.1062C20.7312 23.2537 22.0522 21.9097 22.0522 20.2531L22.0508 4.1957C22.0508 2.54059 20.7312 1.19511 19.1048 1.19511H6.39893L6.40035 1.19622Z" fill="#666666"/>
<path d="M4.22872 6.84769H1.22163C0.821045 6.84769 0.494354 6.51494 0.494354 6.10695C0.494354 5.69895 0.82106 5.36621 1.22163 5.36621H4.22872C4.6293 5.36621 4.95599 5.69897 4.95599 6.10695C4.95599 6.51495 4.62928 6.84769 4.22872 6.84769Z" fill="#666666"/>
<path d="M4.22872 12.9629H1.22163C0.821045 12.9629 0.494354 12.6302 0.494354 12.2222C0.494354 11.8142 0.82106 11.4814 1.22163 11.4814H4.22872C4.6293 11.4814 4.95599 11.8142 4.95599 12.2222C4.95599 12.6302 4.62928 12.9629 4.22872 12.9629Z" fill="#666666"/>
<path d="M4.22872 19.0782H1.22163C0.821045 19.0782 0.494354 18.7454 0.494354 18.3374C0.494354 17.9294 0.82106 17.5967 1.22163 17.5967H4.22872C4.6293 17.5967 4.95599 17.9294 4.95599 18.3374C4.95599 18.7454 4.62928 19.0782 4.22872 19.0782Z" fill="#666666"/>
</g>
<defs>
<clipPath id="clip0_222_294">
<rect width="24" height="25" fill="white"/>
</clipPath>
</defs>
</svg>
