<svg width="30" height="25" viewBox="0 0 30 25" fill="none" xmlns="http://www.w3.org/2000/svg">
<g clip-path="url(#clip0_245_185)">
<path fill-rule="evenodd" clip-rule="evenodd" d="M26.9157 19.9258L16.2186 1.39941L16.2175 1.40047C15.6731 0.457655 14.3265 0.457655 13.7821 1.40047L13.7811 1.39941L3.08497 19.9258C2.5523 20.8484 3.19044 22.0341 4.30264 22.0341H25.6967C25.9609 22.0341 26.2006 21.9723 26.403 21.8551L26.402 21.854C27.0444 21.4844 27.3203 20.6289 26.9155 19.9258L26.9157 19.9258ZM13.9964 8.59477H16.0035C16.2283 8.59477 16.4115 8.75564 16.4115 8.9506V10.8618L15.9129 16.0297C15.8693 16.4857 15.0958 16.3557 14.4939 16.3557C14.2819 16.3557 14.1051 16.214 14.088 16.0297L13.5894 10.8629V8.95169C13.5884 8.75567 13.7716 8.59477 13.9964 8.59477ZM14.9999 17.3624C16.4829 17.3624 16.4829 19.6188 14.9999 19.6188C13.517 19.6199 13.518 17.3624 14.9999 17.3624Z" fill="#1E2B34"/>
</g>
<defs>
<clipPath id="clip0_245_185">
<rect width="30" height="25" fill="white"/>
</clipPath>
</defs>
</svg>
