<svg width="40" height="37" viewBox="0 0 40 37" fill="none" xmlns="http://www.w3.org/2000/svg">
<g clip-path="url(#clip0_242_77)">
<path d="M27.3256 0.214844H13.3452C9.82965 0.214844 7.6466 2.30753 7.6466 5.67532V6.35232H5.67297C2.15887 6.35232 -0.0241699 8.44501 -0.0241699 11.8128V21.3209C-0.0241699 24.6916 2.15887 26.7857 5.67297 26.7857H19.6562C23.1689 26.7857 25.3519 24.6916 25.3519 21.3209V20.6482H27.327C30.8411 20.6482 33.0241 18.5541 33.0241 15.1849V5.67532C33.0242 2.30753 30.8411 0.214844 27.3256 0.214844ZM5.67297 8.40915H19.6548C21.3157 8.40915 23.2951 9.00009 23.2951 11.8128V12.0552H2.03265V11.8128C2.03265 9.00009 4.01202 8.40915 5.67297 8.40915ZM19.6562 24.7289H5.67297C4.01202 24.7289 2.03265 24.1379 2.03265 21.3209V14.112H23.2951V21.3209C23.2951 24.1379 21.3157 24.7289 19.6562 24.7289ZM27.327 18.5914H25.3519V11.8128C25.3519 8.44501 23.1689 6.35232 19.6548 6.35232H9.70343V5.67532C9.70343 2.86261 11.6842 2.27167 13.3452 2.27167H27.3256C28.9865 2.27167 30.9673 2.86261 30.9673 5.67532V5.91772H26.1853C26.0502 5.91772 25.9165 5.94432 25.7917 5.99601C25.6669 6.04769 25.5536 6.12344 25.4581 6.21894C25.3626 6.31444 25.2868 6.42781 25.2351 6.55258C25.1835 6.67735 25.1569 6.81108 25.1569 6.94614C25.1569 7.08119 25.1835 7.21492 25.2351 7.33969C25.2868 7.46446 25.3626 7.57784 25.4581 7.67333C25.5536 7.76883 25.6669 7.84458 25.7917 7.89626C25.9165 7.94795 26.0502 7.97455 26.1853 7.97455H30.9673V15.1849C30.9673 18.0005 28.9879 18.5914 27.327 18.5914Z" fill="#1E2B34"/>
</g>
<defs>
<clipPath id="clip0_242_77">
<rect width="40" height="37" fill="white"/>
</clipPath>
</defs>
</svg>
