<svg width="23" height="26" viewBox="0 0 23 26" fill="none" xmlns="http://www.w3.org/2000/svg">
<g clip-path="url(#clip0_293_2)">
<path fill-rule="evenodd" clip-rule="evenodd" d="M12.6492 0C13.6866 0 14.5746 0.803458 14.7553 1.906L14.9402 3.02657C15.1721 4.43829 16.5271 5.28352 17.7756 4.79489L18.766 4.40784C19.7417 4.02529 20.8293 4.45411 21.3485 5.42458L22.4976 7.57432C23.0158 8.54481 22.8152 9.7771 22.0223 10.4993L21.2158 11.2317C20.1993 12.1548 20.1993 13.8441 21.2158 14.7683L22.0223 15.5007C22.8152 16.2229 23.0158 17.4552 22.4976 18.4257L21.3485 20.5754C20.8293 21.5459 19.7407 21.9747 18.766 21.5922L17.7756 21.2051C16.5272 20.7165 15.1722 21.5606 14.9402 22.9734L14.7553 24.094C14.5746 25.1965 13.6866 26 12.6492 26H10.3509C9.31348 26 8.42549 25.1965 8.24475 24.094L8.05984 22.9723C7.82792 21.5606 6.47295 20.7154 5.22442 21.204L4.23406 21.5922C3.25832 21.9736 2.1708 21.5448 1.65263 20.5743L0.503456 18.4246C-0.0157554 17.4541 0.184826 16.2218 0.977738 15.5007L1.78424 14.7683C2.79969 13.8453 2.79969 12.1548 1.78424 11.2318L0.977738 10.4994C0.184826 9.77828 -0.0157555 8.546 0.502413 7.57553L1.65158 5.4258C2.1708 4.4553 3.25832 4.02648 4.23406 4.40792L5.22442 4.79613C6.47284 5.28476 7.82781 4.43953 8.05984 3.02782L8.24475 1.90612C8.42548 0.803602 9.31348 0.000115575 10.3509 0.000115575L12.6492 0ZM11.5 8.37778C9.13694 8.37778 7.22096 10.4474 7.22096 13C7.22096 15.5526 9.13694 17.6222 11.5 17.6222C13.8631 17.6222 15.7791 15.5526 15.7791 13C15.7791 10.4474 13.8631 8.37778 11.5 8.37778Z" fill="#9CA3AF"/>
</g>
<defs>
<clipPath id="clip0_293_2">
<rect width="23" height="26" fill="white"/>
</clipPath>
</defs>
</svg>
