<svg width="26" height="26" viewBox="0 0 26 26" fill="none" xmlns="http://www.w3.org/2000/svg">
<g clip-path="url(#clip0_230_752)">
<path d="M12.0546 5.90927C8.01606 5.90927 4.72729 9.19804 4.72729 13.2365C4.72729 17.2751 8.01606 20.5638 12.0546 20.5638C13.819 20.5638 15.4402 19.936 16.7071 18.8917L20.0623 22.2469C20.3393 22.5239 20.788 22.5239 21.065 22.2469C21.342 21.9699 21.342 21.5203 21.065 21.2442L17.7099 17.889C18.7541 16.6223 19.3819 15.0009 19.3819 13.2365C19.3819 9.19794 16.0931 5.90927 12.0546 5.90927ZM12.0546 7.32746C15.3268 7.32746 17.9637 9.96433 17.9637 13.2365C17.9637 16.5088 15.3268 19.1456 12.0546 19.1456C8.78235 19.1456 6.14548 16.5088 6.14548 13.2365C6.14548 9.96433 8.78235 7.32746 12.0546 7.32746Z" fill="#797979"/>
</g>
<defs>
<clipPath id="clip0_230_752">
<rect width="26" height="26" fill="white"/>
</clipPath>
</defs>
</svg>
