<svg width="86" height="90" viewBox="0 0 86 90" fill="none" xmlns="http://www.w3.org/2000/svg">
<g clip-path="url(#clip0_293_2)">
<path fill-rule="evenodd" clip-rule="evenodd" d="M47.297 0C51.1759 0 54.4962 2.7812 55.172 6.5977L55.8634 10.4766C56.7306 15.3633 61.797 18.2891 66.4654 16.5977L70.1685 15.2579C73.8169 13.9337 77.8833 15.4181 79.8247 18.7774L84.1216 26.2188C86.0591 29.5782 85.3091 33.8438 82.3443 36.3438L79.3287 38.879C75.5279 42.0743 75.5279 47.922 79.3287 51.121L82.3443 53.6562C85.3091 56.1562 86.0591 60.4218 84.1216 63.7812L79.8247 71.2226C77.8833 74.582 73.813 76.0664 70.1685 74.7421L66.4654 73.4023C61.7974 71.7109 56.731 74.6328 55.8634 79.5234L55.172 83.4023C54.4962 87.2187 51.1759 90 47.297 90H38.7032C34.8243 90 31.504 87.2188 30.8282 83.4023L30.1368 79.5195C29.2696 74.6328 24.2032 71.707 19.5348 73.3984L15.8317 74.7422C12.1833 76.0625 8.11689 74.5781 6.17939 71.2188L1.88249 63.7774C-0.0589093 60.418 0.691091 56.1524 3.65589 53.6564L6.67149 51.1212C10.4684 47.9259 10.4684 42.0743 6.67149 38.8792L3.65589 36.344C0.691091 33.8479 -0.0589098 29.5823 1.87859 26.223L6.17549 18.7816C8.11689 15.4222 12.1833 13.9378 15.8317 15.2582L19.5348 16.602C24.2028 18.2934 29.2692 15.3676 30.1368 10.4809L30.8282 6.5981C31.504 2.7817 34.8243 0.000400066 38.7032 0.000400066L47.297 0ZM43.0001 29C34.1642 29 27.0001 36.1641 27.0001 45C27.0001 53.8359 34.1642 61 43.0001 61C51.836 61 59.0001 53.8359 59.0001 45C59.0001 36.1641 51.836 29 43.0001 29Z" fill="black"/>
</g>
<defs>
<clipPath id="clip0_293_2">
<rect width="86" height="90" fill="white"/>
</clipPath>
</defs>
</svg>
