<svg width="40" height="40" viewBox="0 0 40 40" fill="none" xmlns="http://www.w3.org/2000/svg">
<g clip-path="url(#clip0_219_174)">
<path d="M11.3167 6.26426C11.213 6.26284 11.1093 6.26426 11.0056 6.26568C9.33945 6.31114 7.60505 6.90204 6.02709 8.34095C3.05265 11.0526 2.41629 14.365 3.19043 17.622C3.96458 20.8791 6.07112 24.1191 8.51698 27.0199C13.4075 32.8224 19.7072 37.2784 19.7072 37.2784L19.7057 37.2798C19.727 37.2912 19.7498 37.3026 19.7725 37.3111C19.7952 37.3253 19.818 37.3366 19.8435 37.3466C19.8691 37.3537 19.8947 37.358 19.9216 37.3608C19.9472 37.3665 19.9728 37.3707 19.9998 37.3736C20.0268 37.3707 20.0523 37.3665 20.0779 37.3608C20.1049 37.358 20.1304 37.3537 20.156 37.3466C20.1816 37.3366 20.2043 37.3253 20.2285 37.3111C20.2498 37.3026 20.2725 37.2912 20.2938 37.2798C20.2938 37.2798 26.5934 32.8238 31.484 27.0213C33.9286 24.1193 36.0367 20.8791 36.8105 17.6235C37.5847 14.3664 36.9483 11.0555 33.9739 8.34237C32.3958 6.90346 30.6599 6.31256 28.9953 6.2671C27.3291 6.22165 25.7397 6.70459 24.3604 7.35234C22.3022 8.31968 20.6884 9.67052 20.0011 10.2941C19.3151 9.67052 17.7 8.31823 15.6419 7.35234C14.3493 6.74437 12.8706 6.28274 11.3179 6.26426L11.3167 6.26426ZM11.3039 7.2799C12.6619 7.29552 14.0071 7.70746 15.2087 8.27139C17.7726 9.47593 19.6392 11.3495 19.6392 11.3495C19.6392 11.3509 19.6406 11.3509 19.6406 11.3509L19.642 11.3523C19.6619 11.3694 19.6832 11.385 19.7045 11.3978C19.7244 11.4148 19.7472 11.4305 19.7699 11.4447C19.794 11.4546 19.8196 11.4631 19.8452 11.4702C19.8693 11.4802 19.8949 11.4873 19.9205 11.4944C19.9474 11.4958 19.973 11.4958 20 11.4944C20.027 11.4958 20.0526 11.4958 20.0795 11.4944C20.1051 11.4873 20.1293 11.4802 20.1534 11.4702C20.1804 11.4631 20.206 11.4546 20.2301 11.4447C20.2528 11.4305 20.2741 11.4148 20.2955 11.3978C20.3168 11.385 20.3381 11.3694 20.358 11.3538C20.358 11.3523 20.3594 11.3523 20.3594 11.3509H20.3608C20.3608 11.3509 22.2273 9.47594 24.7913 8.27281C26.0726 7.67055 27.5172 7.24441 28.9673 7.28274C30.4176 7.32251 31.8793 7.8083 33.2899 9.09383C36.0214 11.5853 36.5356 14.392 35.8225 17.3891C35.1109 20.3863 33.0967 23.5327 30.7076 26.3676C26.5415 31.3109 21.2815 35.2982 20.0004 36.2386C18.7191 35.2968 13.4593 31.3095 9.29309 26.3676C6.90389 23.5324 4.88981 20.3862 4.17818 17.3891C3.46654 14.3919 3.97931 11.5836 6.71083 9.09383C8.11992 7.8083 9.58298 7.32252 11.0334 7.28274C11.1243 7.28132 11.2152 7.27848 11.3047 7.28132L11.3039 7.2799Z" stroke="#DEE3EA" stroke-linejoin="bevel"/>
</g>
<defs>
<clipPath id="clip0_219_174">
<rect width="40" height="40" fill="white"/>
</clipPath>
</defs>
</svg>
