<svg width="55" height="55" viewBox="0 0 55 55" fill="none" xmlns="http://www.w3.org/2000/svg">
<path d="M18.4495 12.6992H43.2991C43.3741 12.6993 43.4369 12.7276 43.4788 12.7676C43.5173 12.8044 43.5491 12.8611 43.5491 12.9492C43.5491 13.0243 43.5208 13.087 43.4808 13.1289C43.4439 13.1674 43.3873 13.1992 43.2991 13.1992H18.4495C17.6099 13.1992 16.7852 13.5569 16.1956 14.1465L16.1859 14.1562L16.1771 14.166C15.6613 14.7401 15.2991 15.5053 15.2991 16.3496C15.2991 18.0772 16.7244 19.5 18.4495 19.5H43.3011C45.3238 19.5 47.0003 21.1766 47.0003 23.1992V36.8477C47.0003 37.8128 46.6051 38.737 45.9476 39.3945C45.2381 40.1039 44.3155 40.498 43.3011 40.498H24.8011C24.7261 40.498 24.6633 40.4697 24.6214 40.4297C24.583 40.3928 24.5511 40.3361 24.5511 40.248C24.5511 40.1731 24.5794 40.1102 24.6194 40.0684C24.6563 40.0299 24.713 39.9981 24.8011 39.998H43.3011C44.1407 39.998 44.9654 39.6404 45.555 39.0508C46.1549 38.4509 46.4515 37.6705 46.4515 36.8477V33.6973H34.3011C32.2783 33.6973 30.6019 32.0225 30.6019 29.998C30.6019 29.0376 30.9936 28.1141 31.7054 27.4023C32.3199 26.7879 33.1683 26.4005 34.1116 26.3545L34.3011 26.3496L45.9007 26.3516H46.4007V23.2012C46.4006 21.4737 44.9753 20.0508 43.2503 20.0508H18.4007C17.5399 20.0508 16.7465 19.7068 16.0628 19.1602L15.2503 18.5107V30.5488C15.2503 30.6731 15.1246 30.7988 15.0003 30.7988C14.9253 30.7988 14.8625 30.7705 14.8206 30.7305C14.7821 30.6936 14.7503 30.637 14.7503 30.5488V16.4102C14.7954 15.4831 15.1125 14.6163 15.7269 13.9365L15.8538 13.8027C16.5188 13.1361 17.3739 12.7498 18.2698 12.7041L18.4495 12.6992ZM34.3011 26.8984C33.486 26.8984 32.7131 27.1898 32.1155 27.7783C31.4432 28.3886 31.1507 29.2336 31.1507 30.0488C31.1508 31.7763 32.5761 33.1992 34.3011 33.1992H46.4495V32.6992L46.4515 27.3984V26.8984H34.3011Z" stroke="#DEE3EA"/>
<path d="M13.0508 33.4004H16.9004C16.9754 33.4004 17.0382 33.4287 17.0801 33.4688C17.1186 33.5056 17.1504 33.5622 17.1504 33.6504V37.7012L17.6504 38.2012H21.7012C21.7762 38.2012 21.839 38.2295 21.8809 38.2695C21.9194 38.3064 21.9512 38.363 21.9512 38.4512V42.3008C21.9512 42.3758 21.9229 42.4386 21.8828 42.4805C21.846 42.519 21.7894 42.5508 21.7012 42.5508H17.6504L17.1504 43.0508V47.1016C17.1504 47.1766 17.1221 47.2393 17.082 47.2812C17.0452 47.3197 16.9886 47.3516 16.9004 47.3516H13.0508C12.9758 47.3516 12.913 47.3232 12.8711 47.2832C12.8326 47.2464 12.8008 47.1897 12.8008 47.1016V43.0508L12.3008 42.5508H8.25C8.12659 42.5508 8 42.4239 8 42.3008V38.4512C8 38.3761 8.02832 38.3134 8.06836 38.2715C8.10521 38.233 8.16182 38.2012 8.25 38.2012H12.3008L12.8008 37.7012V33.6504C12.8008 33.5754 12.8291 33.5126 12.8691 33.4707C12.906 33.4322 12.9626 33.4004 13.0508 33.4004ZM13.8516 33.8984L13.3516 34.3984V38.4492C13.3516 38.5243 13.3233 38.587 13.2832 38.6289C13.2464 38.6674 13.1897 38.6992 13.1016 38.6992H9.05078L8.55078 39.1982L8.54688 41.499L9.04688 42H13.0977C13.1727 42 13.2354 42.0283 13.2773 42.0684C13.3158 42.1052 13.3476 42.1618 13.3477 42.25V46.3008L13.8477 46.8008H16.1484L16.6484 46.3008V42.25C16.6484 42.175 16.6768 42.1122 16.7168 42.0703C16.7536 42.0318 16.8103 42 16.8984 42H20.9492L21.4492 41.501L21.4531 39.2002L20.9531 38.6992H16.9023C16.8273 38.6992 16.7646 38.6709 16.7227 38.6309C16.6842 38.594 16.6523 38.5374 16.6523 38.4492V34.3984L16.1523 33.8984H13.8516Z" stroke="#DEE3EA" stroke-linejoin="bevel"/>
</svg>
