<svg width="26" height="19" viewBox="0 0 26 19" fill="none" xmlns="http://www.w3.org/2000/svg">
<path fill-rule="evenodd" clip-rule="evenodd" d="M19.5243 0.00195312C19.6916 0.00195664 19.8659 0.00422757 20.0545 0.00878906C20.4713 0.0142521 20.887 0.0511716 21.3055 0.119141C21.75 0.196044 22.1811 0.338556 22.5838 0.541992C22.9918 0.748329 23.3641 1.01871 23.6854 1.3418C24.0065 1.66349 24.2755 2.03316 24.4852 2.44238C24.6877 2.84521 24.8297 3.27575 24.9071 3.72559C24.9743 4.1365 25.0108 4.5522 25.0155 4.95605C25.0172 5.01386 25.0182 5.07425 25.0194 5.13965C25.0206 5.20935 25.021 5.2642 25.0223 5.38867C25.0229 5.44036 25.0236 5.44053 25.0243 5.5V13.2061C25.0234 13.2693 25.0231 13.2695 25.0223 13.335C25.0199 13.5372 25.0186 13.6283 25.0155 13.7314C25.0105 14.1515 24.9739 14.5712 24.9051 14.9912C24.8281 15.439 24.6848 15.8728 24.4784 16.2832C24.2697 16.6906 23.9986 17.0639 23.6746 17.3887C23.3493 17.7141 22.9735 17.9857 22.5623 18.1934C22.1567 18.398 21.7228 18.5409 21.2694 18.6191C20.8539 18.6873 20.4337 18.7244 20.0194 18.7295C19.7981 18.7343 19.6385 18.7363 19.4774 18.7363H11.2967C11.1215 18.7356 10.9442 18.7334 10.7674 18.7295C10.3507 18.7243 9.93497 18.6876 9.51839 18.6191C9.07378 18.5424 8.64251 18.4006 8.23617 18.1963C7.8301 17.9893 7.45914 17.7191 7.15511 17.4141C7.12916 17.3899 7.10989 17.3705 7.05941 17.3174C6.92469 17.1859 6.8377 17.1014 6.70687 16.9707C6.60624 16.872 6.52643 16.792 6.34847 16.6143L3.97347 14.2393C3.89639 14.1682 3.85447 14.1271 3.78402 14.0576C3.69839 13.9742 3.64985 13.9262 3.54281 13.8193L1.37972 11.6553C1.35096 11.6255 1.31985 11.5937 1.28402 11.5576C1.25638 11.5298 1.23402 11.5076 1.18245 11.4561C1.10772 11.3814 1.05159 11.3242 1.01351 11.2832C0.832475 11.1045 0.660501 10.9159 0.499837 10.7188C0.349425 10.56 0.227742 10.3754 0.140462 10.1748L0.117024 10.1123C-0.0390337 9.62985 -0.0389823 9.1104 0.117024 8.62793L0.139485 8.56641C0.226079 8.36539 0.347165 8.181 0.496907 8.02148C0.658251 7.824 0.829881 7.63526 0.99886 7.46875C1.07247 7.39209 1.12444 7.33833 1.19027 7.27246C1.21465 7.24791 1.21537 7.24839 1.24886 7.21484C1.29979 7.16375 1.33946 7.12297 1.38558 7.0752L3.54378 4.91797C3.57136 4.89057 3.59359 4.86829 3.64144 4.82129C3.69703 4.76668 3.72347 4.74117 3.75277 4.71191C3.81664 4.64851 3.87795 4.58771 3.95198 4.51758C3.97384 4.49682 6.3431 2.12939 6.34652 2.12598C6.49133 1.98051 6.60002 1.8728 6.70101 1.77441C6.80168 1.67353 6.90555 1.57268 7.01839 1.46582C7.10946 1.36874 7.12067 1.35644 7.13558 1.3418C7.45719 1.01891 7.8282 0.749087 8.23714 0.541016C8.6402 0.338072 9.07141 0.195395 9.52327 0.117188C9.93407 0.0504304 10.3497 0.0141509 10.7586 0.00878906C10.9575 0.00408208 11.1309 0.00192078 11.2909 0.00195312C11.4674 0.000189684 11.6084 2.33354e-07 11.9198 0H18.9012C19.215 3.78998e-08 19.3552 0.000221778 19.5243 0.00195312ZM11.2977 1.39062C11.1428 1.39063 10.98 1.39286 10.784 1.39746C10.4365 1.40205 10.0897 1.43178 9.75374 1.48633C9.44412 1.53994 9.14406 1.63935 8.86605 1.7793C8.59068 1.9194 8.33863 2.10271 8.11605 2.32617C8.11312 2.3292 8.09774 2.34565 8.0682 2.37695C8.00702 2.44177 7.99368 2.4559 7.97152 2.47656C7.87156 2.57123 7.77648 2.66269 7.67855 2.76074C7.57666 2.86011 7.47243 2.96427 7.33089 3.10645L4.93343 5.50391C4.89936 5.53545 4.88706 5.54709 4.87679 5.55566C4.83016 5.60031 4.78248 5.64643 4.73421 5.69434C4.70292 5.72558 4.67458 5.75385 4.62581 5.80176C4.56947 5.85711 4.54974 5.877 4.5262 5.90039L2.37874 8.0459C2.33547 8.0909 2.29052 8.13687 2.23421 8.19336C2.19866 8.22897 2.19822 8.22962 2.15316 8.27441C2.11761 8.31039 2.0703 8.35914 1.98909 8.44336C1.83734 8.59323 1.69366 8.75131 1.55941 8.91699L1.51741 8.96484C1.48202 9.00125 1.45233 9.04268 1.42952 9.08789C1.37708 9.27147 1.37637 9.46676 1.42855 9.65039C1.45136 9.69495 1.48121 9.73572 1.51644 9.77148L1.56234 9.82324C1.69593 9.98865 1.83896 10.1463 2.00765 10.3135C2.05179 10.3603 2.09894 10.4088 2.16488 10.4746C2.21736 10.527 2.24166 10.5512 2.27132 10.5811C2.3111 10.6211 2.34668 10.6564 2.37191 10.6826L4.5262 12.8389C4.62784 12.9404 4.67295 12.9845 4.73031 13.04C4.80988 13.1186 4.84171 13.1502 4.87874 13.1855C4.88404 13.19 4.93148 13.2334 4.93148 13.2334L7.33187 15.6338C7.50633 15.808 7.58443 15.8853 7.68538 15.9844C7.81099 16.1098 7.88913 16.1862 7.96859 16.2607C7.99383 16.2842 7.9906 16.2807 8.06722 16.3613C8.09004 16.3854 8.10789 16.4042 8.12093 16.417C8.33959 16.6359 8.59163 16.8191 8.86409 16.958C9.14463 17.0991 9.44475 17.1975 9.74886 17.25C10.0913 17.3063 10.4383 17.3373 10.7918 17.3418C10.9668 17.3456 11.1359 17.348 11.2996 17.3486H19.4774C19.6264 17.3486 19.7772 17.3465 19.9959 17.3418C20.3472 17.3375 20.698 17.3069 21.0389 17.251C21.3509 17.1971 21.653 17.0966 21.9354 16.9541C22.2146 16.8131 22.4698 16.6287 22.6903 16.4082C22.9118 16.1861 23.0974 15.9309 23.2381 15.6562C23.3808 15.3726 23.4811 15.0692 23.534 14.7617C23.5907 14.4158 23.6214 14.0659 23.6258 13.7031C23.6289 13.5986 23.6304 13.5125 23.6326 13.3184C23.6334 13.2547 23.6328 13.2524 23.6336 13.1904V5.50879C23.633 5.45601 23.6332 5.45562 23.6326 5.40332C23.6313 5.28163 23.6309 5.22897 23.6297 5.16309C23.6287 5.1031 23.6276 5.04847 23.6258 4.98438C23.6217 4.63762 23.591 4.29169 23.536 3.95508C23.4827 3.6458 23.3844 3.34596 23.2459 3.07031C23.1044 2.79419 22.9203 2.54096 22.7 2.32031C22.4825 2.10161 22.231 1.9194 21.9559 1.78027C21.6764 1.6391 21.3775 1.53955 21.076 1.4873C20.7322 1.4315 20.384 1.40118 20.0282 1.39648C19.8424 1.39203 19.6786 1.39066 19.5164 1.39062C19.3469 1.38892 19.2101 1.3877 18.9012 1.3877H11.9198C11.613 1.3877 11.4751 1.38889 11.2977 1.39062ZM11.8905 5.4873C12.0562 5.48742 12.215 5.55361 12.3319 5.6709H12.3299C12.3589 5.69985 12.3828 5.73247 12.4051 5.76562L15.1317 8.48633L17.8729 5.74512C17.8918 5.71909 17.9119 5.69341 17.9354 5.66992C18.1137 5.49186 18.3821 5.43782 18.6151 5.53418C18.8479 5.63053 18.9997 5.85771 18.9998 6.10938C18.9998 6.27676 18.9316 6.4325 18.8182 6.54688L18.826 6.55469L16.0135 9.36621L18.7381 12.084C18.7705 12.1059 18.8009 12.1312 18.8289 12.1592L18.828 12.1611C19.006 12.3391 19.0591 12.6064 18.9627 12.8389C18.8662 13.0715 18.6387 13.2236 18.3866 13.2236C18.219 13.2235 18.0635 13.1553 17.9491 13.042L17.9432 13.0488L15.1336 10.2461L12.328 13.0527L12.3153 13.04C12.2589 13.0959 12.1923 13.1433 12.116 13.1748C11.8832 13.2709 11.6155 13.217 11.4373 13.0391C11.32 12.9223 11.2538 12.764 11.2537 12.5986C11.2537 12.4332 11.32 12.274 11.4373 12.1572V12.1592C11.4692 12.1274 11.504 12.0999 11.5409 12.0762L14.2518 9.36621L11.4373 6.55859L11.4471 6.54785C11.3913 6.49157 11.3439 6.42567 11.3123 6.34961C11.2159 6.117 11.2698 5.84891 11.4481 5.6709C11.5651 5.55348 11.7246 5.4873 11.8905 5.4873Z" fill="#DEE3EA"/>
</svg>
