<svg xmlns="http://www.w3.org/2000/svg" version="1.1" xmlns:xlink="http://www.w3.org/1999/xlink" xmlns:svgjs="http://svgjs.dev/svgjs" viewBox="0 0 800 800"><defs><linearGradient x1="50%" y1="0%" x2="50%" y2="100%" id="ccchaos-grad"><stop stop-color="hsl(206, 75%, 49%)" stop-opacity="1" offset="0%"></stop><stop stop-color="hsl(331, 90%, 56%)" stop-opacity="1" offset="100%"></stop></linearGradient></defs><g stroke-width="2" stroke="url(#ccchaos-grad)" fill="none" stroke-linecap="round"><path d="M389.4 38.05C395.33 40.09 401.21 42.66 407.03 45.63 412.85 48.75 418.61 52.02 424.32 55.29 430.03 58.31 435.68 61.1 441.27 63.58 446.87 65.53 452.42 67.06 457.91 68.14 468.92 68.56 479.75 67.62 490.42 65.97 501.19 63.81 511.86 62.67 522.48 63.28 533.28 65.64 544.1 70.59 554.98 78 566.13 87.23 577.38 98.1 588.74 109.93 600.36 121.78 612.04 133.3 623.71 143.99 635.47 153.18 647.03 161.07 658.22 167.74 669.13 172.84 679.35 177.2 688.64 181.22 697.21 184.62 704.55 188.42 710.48 192.93 715.42 197.78 718.89 203.77 720.91 210.93 722.19 218.85 722.38 227.95 721.72 238.04 721.18 248.84 720.48 260.4 720 272.48 720.66 285.02 722.13 297.83 724.59 310.7 726.42 317.21 728.51 323.71 730.84 330.17 733.53 336.66 736.4 343.09 739.42 349.44 742.67 355.82 745.97 362.1 749.25 368.28 752.58 374.46 755.77 380.52 758.74 386.45 762.78 395.25 768.3 411.76 769.53 419.48 769.6 426.97 766.28 440.91 762.97 447.4 757.21 456 749.85 464.01 741.34 471.65 732.51 479.73 723.33 487.87 714.19 496.44 705.77 506.08 697.9 516.78 690.7 528.92 684.63 542.72 679.23 558.34 674.37 575.84 670.4 594.7 666.62 614.85 662.83 635.6 659.36 655.77 655.48 674.68 651.03 691.04 646.42 703.88 641 712.22 634.73 715.29 628.06 713.76 620.51 707.47 612.13 697.47 603.35 686.57 593.83 675.88 583.68 667.83 573.25 665.27 562.31 668.99 550.98 679.79 539.51 697.37 527.74 719.83 515.78 744.4 503.76 767.77 491.6 786.35 479.36 796.97 473.24 798.85 467.11 798.18 460.96 794.99 454.82 789.6 448.67 782.09 442.52 772.8 436.36 762.41 430.21 751.23 424.05 739.81 417.9 728.95 411.74 719.01 405.59 710.52 399.44 704.12 393.36 700 387.35 698.32 381.34 699.27 375.41 702.59 369.54 708.05 363.67 715.52 357.87 724.39 352.14 734.16 346.41 744.55 340.74 754.8 335.13 764.39 323.89 780.42 312.89 788.93 302.14 788.41 291.31 779.32 280.7 762.43 270.29 740.35 259.78 716.05 249.45 692.48 239.3 672.22 229.03 657.15 218.93 648.07 209.01 644.75 198.99 646.98 189.17 652.71 179.59 660.12 169.97 668.44 160.65 675.11 151.68 678.9 142.77 679.89 134.29 676.78 126.31 669.73 118.5 659.45 111.24 646.08 104.6 630.46 98.18 613.17 92.38 594.99 87.24 576.65 82.27 558.18 77.91 540.34 74.14 523.4 70.42 507.02 67.22 491.67 64.5 477.29 61.69 463.47 59.29 450.39 57.3 437.91 56.24 431.78 55.28 425.75 54.41 419.8 53.5 413.89 52.68 408.04 51.97 402.23 50.89 393.55 49.26 376.3 48.73 367.7 48.32 359.14 48.24 342.39 48.61 334.23 49.18 326.18 51.23 310.69 52.73 303.29 54.99 293.63 57.99 284.63 61.69 276.38 65.57 268.33 70.11 261.07 75.26 254.61 80.49 248.19 86.24 242.39 92.43 237.06 98.56 231.32 105.05 225.61 111.83 219.65 118.43 212.64 125.29 204.89 132.36 196.2 139.23 186.1 146.32 174.98 153.66 162.95 160.82 150.1 168.27 137.03 176.02 124.26 183.7 112.18 191.73 101.49 200.12 92.76 208.52 85.93 217.31 81.47 226.5 79.32 235.74 78.52 245.37 79.02 255.37 80.1 265.43 80.34 275.85 79.64 286.56 77.47 297.34 73.05 308.38 67.07 319.65 60.02 325.3 56.15 331 52.33 336.74 48.68 342.49 45.2 348.28 42.14 354.1 39.62 359.93 37.58 365.79 36.25 371.67 35.67 377.56 35.71 383.47 36.52 389.39 38.05" stroke-dasharray="25 12" transform="rotate(0, 400, 400)" opacity="0.78"></path><path d="M388.59 48.56C400.06 53.08 411.36 59.24 422.49 65.98 433.63 71.86 444.61 76.57 455.42 79.67 466.28 80.46 477.02 79.8 487.65 78.26 498.38 75.96 509.07 74.39 519.73 74.27 530.57 75.65 541.45 79.47 552.39 85.72 563.54 93.89 574.77 103.95 586.05 115.3 597.5 127.1 608.94 138.97 620.26 150.37 631.55 160.62 642.54 169.75 653.05 177.68 663.19 184.04 672.57 189.45 680.97 194.2 688.65 198.01 695.11 201.82 700.23 205.94 704.47 210 707.37 214.88 708.98 220.69 710.02 226.98 710.14 234.34 709.59 242.69 709.27 251.61 708.9 261.39 708.8 271.82 709.81 282.69 711.61 294 714.31 305.56 718.46 317.35 723.47 329.19 729.11 340.94 735.55 352.76 741.89 364.37 747.64 375.64 752.85 386.91 756.43 397.54 758.11 407.54 758.32 417.55 756.39 427.01 752.44 436.01 747.16 445.19 740.32 454.16 732.3 463.14 723.87 472.67 714.99 482.64 706.02 493.37 697.6 505.14 689.59 518.12 682.12 532.53 675.67 548.22 669.82 565.39 664.51 583.87 660.07 602.93 655.9 622.41 651.81 641.52 648.14 659.22 644.21 674.81 639.85 687.19 635.46 695.88 630.4 700.1 624.62 699.5 618.55 695.24 611.67 687.33 604.02 677.09 596.03 667.25 587.31 658.81 577.95 653.84 568.33 654.62 558.17 661.51 547.56 674.8 536.8 693.75 525.69 716.36 514.32 739.91 502.89 761.41 491.26 777.69 479.5 786.1 467.73 785.85 455.86 776.5 443.93 759.59 432.01 739.01 420.04 717.77 408.05 700.01 396.07 689.92 384.33 688.76 372.86 696.31 361.38 711.44 350.13 730.37 339.13 749.34 328.09 765.66 317.27 775.53 306.66 777.29 295.98 771.06 285.5 757.12 275.2 737.51 264.81 714.77 254.58 691.5 244.53 670.24 234.38 652.89 224.39 640.64 214.6 633.75 204.74 632.31 195.08 634.93 185.7 640.13 176.3 647.34 167.21 654.17 158.51 659.32 149.89 662.75 141.71 662.88 134.04 659.51 126.55 653.24 119.62 643.75 113.3 631.63 107.19 617.5 101.7 601.82 96.83 585.31 92.13 568.12 88 550.94 84.45 534.19 80.92 517.58 77.88 501.72 75.3 486.68 72.62 472.01 70.31 458.11 68.4 444.92 66.29 431.98 64.53 419.57 63.16 407.63 61.6 395.78 60.47 384.25 59.82 373.03 59.11 361.81 58.98 351.14 59.47 341.02 60.04 330.91 61.3 321.41 63.26 312.56 65.4 303.76 68.27 295.66 71.84 288.29 75.6 280.94 80.01 274.26 85.03 268.17 90.15 261.88 95.78 255.95 101.86 250.17 107.9 243.74 114.3 237.06 120.99 229.88 127.53 221.56 134.31 212.42 141.31 202.32 148.1 191.05 155.11 178.97 162.33 166.31 169.37 153.27 176.66 140.43 184.22 128.33 191.67 117.26 199.43 107.87 207.52 100.58 215.59 95.17 224.01 91.99 232.8 90.86 241.6 90.75 250.78 91.56 260.31 92.61 269.88 92.53 279.79 91.32 290.01 88.57 300.26 83.63 310.8 77.25 321.58 69.96 332.38 62.1 343.39 55.04 354.58 49.73 365.77 46.4 377.12 45.99 388.58 48.56" stroke-dasharray="14 14" transform="rotate(1.8709677419354838, 400, 400)" opacity="0.51"></path><path d="M388.6 59.07C399.7 63.63 410.68 69.81 421.55 76.63 432.42 82.67 443.19 87.66 453.85 91.11 464.55 92.3 475.19 91.98 485.76 90.62 496.43 88.31 507.09 86.41 517.76 85.66 528.57 86.14 539.42 88.84 550.31 93.9 561.36 100.89 572.45 109.93 583.52 120.54 594.68 131.97 605.74 143.87 616.58 155.68 627.31 166.75 637.64 176.96 647.39 186.12 656.73 193.82 665.24 200.48 672.77 206.3 679.59 210.96 685.24 215.28 689.63 219.56 694.46 225.59 697.91 240.88 697.57 250.79 697.49 258.09 697.45 266.25 697.73 275.13 699.08 284.37 701.17 294.18 704.08 304.41 708.31 314.84 713.29 325.52 718.79 336.31 725 347.17 731.07 358.03 736.55 368.8 741.53 379.58 744.99 389.99 746.69 400.06 747.04 410.17 745.39 420.05 741.83 429.8 737.02 439.79 730.69 449.92 723.17 460.38 715.18 471.4 706.64 483.11 697.89 495.74 689.54 509.24 681.46 523.91 673.81 539.79 667.04 556.48 660.81 574.14 655.08 592.44 650.2 610.57 645.61 628.3 641.19 644.83 637.25 659.35 633.17 671.18 628.8 679.5 624.51 684.29 619.68 684.92 614.26 681.46 608.65 675.38 602.33 666.85 595.3 657.25 588 649.17 580.01 643.41 571.4 641.68 562.53 645.67 553.12 655.38 543.23 670.67 533.19 690.51 522.75 712.84 512.01 735.08 501.19 754.56 490.13 768.55 478.88 774.88 467.62 773.15 456.2 763.13 444.69 746.4 433.18 726.59 421.59 706.4 409.94 689.5 398.29 679.71 386.85 678.15 375.65 684.67 364.42 698.43 353.41 716.08 342.61 734.29 331.77 750.69 321.12 761.64 310.66 765.41 300.15 761.89 289.8 750.87 279.62 733.91 269.37 713.14 259.27 690.78 249.35 669.19 239.34 650.27 229.51 635.42 219.89 625.29 210.22 620.26 200.78 619.49 191.62 621.92 182.48 627.13 173.68 633.08 165.26 638.47 156.96 643.24 149.12 645.63 141.79 645.2 134.64 642.44 128.06 636.62 122.07 628.09 116.28 617.46 111.09 604.86 106.5 590.9 102.06 575.86 98.16 560.28 94.81 544.6 91.47 528.69 88.59 513.14 86.14 498.14 83.57 483.29 81.35 469.1 79.49 455.59 77.44 442.26 75.71 429.54 74.33 417.42 72.78 405.37 71.62 393.82 70.92 382.77 70.15 371.72 69.95 361.39 70.34 351.75 70.81 342.08 71.97 333.12 73.8 324.84 75.82 316.53 78.56 308.88 81.98 301.87 85.6 294.71 89.88 288.06 94.75 281.78 99.74 275.1 105.25 268.52 111.2 261.84 117.14 254.36 123.44 246.43 130.04 237.87 136.51 228.21 143.22 217.75 150.15 206.48 156.87 194.33 163.81 181.67 170.93 168.82 177.87 156.03 185.03 143.84 192.43 132.74 199.7 122.96 207.25 115.02 215.08 109.23 222.86 105.2 230.97 103.19 239.4 102.93 247.82 103.31 256.6 104.25 265.7 105.1 274.82 104.59 284.27 102.81 294.02 99.46 303.79 94.01 313.85 87.26 324.16 79.77 334.49 71.91 345.05 64.96 355.8 59.83 366.56 56.7 377.5 56.42 388.59 59.07" stroke-dasharray="37 30" transform="rotate(3.7419354838709675, 400, 400)" opacity="0.11"></path><path d="M389.42 69.58C400.17 74.16 410.85 80.34 421.46 87.21 432.07 93.41 442.63 98.66 453.13 102.45 463.67 104.07 474.18 104.13 484.66 103.05 495.23 100.8 505.8 98.71 516.39 97.45 527.09 97.13 537.82 98.78 548.56 102.63 559.4 108.35 570.23 116.22 580.97 125.86 591.72 136.61 602.29 148.2 612.55 160.1 622.63 171.67 632.22 182.7 641.18 192.93 649.69 201.92 657.35 209.9 664.03 216.97 670.04 222.8 674.95 228.04 678.7 232.95 682.82 239.35 685.79 253.38 685.67 261.9 685.86 267.99 686.15 274.87 686.78 282.47 688.46 290.31 690.8 298.79 693.9 307.83 698.19 317 703.11 326.61 708.47 336.53 714.44 346.5 720.24 356.7 725.46 367.08 730.21 377.46 733.55 387.77 735.25 398.04 735.73 408.38 734.34 418.79 731.16 429.37 726.81 440.2 720.97 451.44 713.95 463.22 706.41 475.5 698.24 488.57 689.77 502.55 681.56 517.15 673.49 532.69 665.74 549.09 658.73 565.77 652.18 582.85 646.08 599.87 640.77 616.11 635.78 631.25 631.01 644.55 624.6 659.53 611.32 668.32 603.78 661.82 598.5 654.89 592.61 646.64 586.1 638.47 579.39 632.68 572.03 629.88 564.08 631.38 555.92 638.33 547.2 650.45 538.01 667.25 528.66 687.48 518.89 709.15 508.78 729.82 498.59 747.2 488.11 758.94 477.4 763.31 466.67 760.25 455.74 749.7 444.67 733.22 433.6 714.22 422.4 695.04 411.11 679 399.82 669.51 388.7 667.58 377.77 673.14 366.83 685.56 356.06 701.9 345.47 719.26 334.85 735.53 324.39 747.31 314.11 752.83 303.77 751.78 293.58 743.61 283.56 729.41 273.47 710.95 263.54 690 253.77 668.74 243.96 648.96 234.33 632.18 224.91 619.31 215.48 610.94 206.29 606.75 197.4 606.06 188.57 608.64 180.08 612.83 172 617.45 164.05 622.44 156.56 626.02 149.59 627.58 142.81 627.54 136.57 624.84 130.92 619.6 125.46 612.44 120.57 603.12 116.26 592.09 112.07 579.79 108.4 566.47 105.24 552.59 102.08 538.18 99.34 523.71 97.01 509.46 94.54 495.13 92.4 481.24 90.6 467.89 88.58 454.61 86.88 441.9 85.5 429.8 83.94 417.75 82.76 406.26 82.01 395.34 81.19 384.42 80.92 374.27 81.22 364.87 81.61 355.42 82.65 346.68 84.36 338.58 86.26 330.38 88.85 322.74 92.12 315.59 95.6 308.18 99.72 301.08 104.43 294.14 109.28 286.67 114.64 279.09 120.46 271.21 126.28 262.51 132.47 253.26 138.97 243.33 145.36 232.5 152 220.98 158.85 208.87 165.52 196.26 172.38 183.48 179.43 170.9 186.29 158.78 193.35 147.6 200.62 137.82 207.74 129.5 215.11 123.1 222.74 118.79 230.28 116.05 238.12 115.05 246.25 115.46 254.34 116.13 262.76 117.02 271.48 117.51 280.2 116.47 289.24 114.07 298.56 110.1 307.9 104.17 317.52 97.1 327.4 89.47 337.28 81.64 347.42 74.85 357.76 69.92 368.11 66.99 378.67 66.87 389.41 69.57" stroke-dasharray="18 13" transform="rotate(5.612903225806451, 400, 400)" opacity="0.63"></path><path d="M391 80.08C401.42 84.67 411.81 90.85 422.15 97.73 432.51 104.06 442.86 109.55 453.16 113.69 463.51 115.73 473.86 116.23 484.2 115.48 494.6 113.41 505.03 111.24 515.45 109.61 525.95 108.61 536.46 109.3 546.94 111.98 557.47 116.42 567.92 123 578.22 131.47 588.46 141.27 598.44 152.24 608.05 163.86 617.42 175.56 626.24 187.09 634.38 198.11 642.07 208.2 648.9 217.43 654.78 225.77 660.06 232.94 664.3 239.37 667.5 245.27 671.04 252.75 673.75 267.17 673.91 275.09 674.38 280.5 675 286.55 675.98 293.28 677.94 300.08 680.52 307.56 683.76 315.65 688.08 323.82 692.94 332.54 698.13 341.75 703.87 350.97 709.4 360.65 714.36 370.73 718.9 380.82 722.12 391.12 723.81 401.62 724.4 412.2 723.25 423.1 720.43 434.4 716.5 445.92 711.15 458 704.63 470.72 697.56 483.8 689.8 497.64 681.64 512.22 673.64 527.12 665.65 542.64 657.86 558.55 650.69 574.26 643.89 589.81 637.49 604.67 631.8 618.31 626.44 630.33 621.3 640.11 614.43 649.74 600.75 649.82 593.34 641.38 588.27 634.51 582.69 627.36 576.59 621.24 570.34 618.11 563.52 618.36 556.14 622.93 548.6 632.5 540.52 646.55 531.96 664.34 523.27 684.5 514.15 705.15 504.65 724.06 495.08 739.29 485.18 748.85 475.02 751.4 464.83 747.17 454.4 736.22 443.8 720.06 433.18 701.88 422.4 683.71 411.49 668.49 400.58 659.31 389.8 657.06 379.16 661.71 368.52 672.84 358.01 687.88 347.66 704.28 337.29 720.26 327.04 732.61 316.95 739.58 306.83 740.77 296.84 735.3 286.99 723.9 277.12 707.96 267.39 688.86 257.83 668.51 248.25 648.58 238.86 630.57 229.7 615.58 220.55 604.33 211.67 596.92 203.09 593.02 194.6 592.58 186.47 594.35 178.75 597.36 171.18 601.53 164.07 605.24 157.47 607.76 151.07 609.45 145.19 609.08 139.88 606.53 134.74 602.43 130.15 596.2 126.11 588.14 122.17 578.8 118.72 568.11 115.74 556.49 112.74 544.17 110.13 531.39 107.9 518.46 105.53 505.29 103.46 492.25 101.7 479.52 99.72 466.77 98.04 454.43 96.66 442.59 95.1 430.78 93.9 419.46 93.11 408.66 92.24 397.87 91.9 387.82 92.12 378.45 92.42 369.03 93.36 360.22 94.94 351.96 96.7 343.55 99.16 335.56 102.27 327.88 105.58 319.87 109.54 311.98 114.08 304.06 118.77 295.58 123.97 286.83 129.64 277.68 135.33 267.78 141.4 257.32 147.78 246.27 154.08 234.56 160.63 222.38 167.4 209.9 174.01 197.29 180.8 184.88 187.77 173.02 194.57 161.95 201.55 152.1 208.71 143.83 215.72 137.08 222.95 132.22 230.4 129.3 237.76 127.68 245.37 127.49 253.24 128.34 261.07 129.09 269.18 129.76 277.57 129.76 285.95 128.12 294.62 125.06 303.57 120.49 312.51 114.11 321.74 106.76 331.22 99.05 340.7 91.31 350.44 84.71 360.41 80.01 370.38 77.3 380.58 77.32 390.99 80.08" stroke-dasharray="2 41" transform="rotate(7.483870967741935, 400, 400)" opacity="0.61"></path><path d="M393.23 90.59C403.32 95.17 413.42 101.31 423.5 108.2 433.6 114.63 443.7 120.33 453.79 124.8 463.91 127.29 474.05 128.24 484.18 127.89 494.36 126.1 504.55 123.97 514.72 122.11 524.94 120.57 535.13 120.42 545.25 122.02 555.36 125.19 565.34 130.43 575.1 137.6 584.75 146.23 594.08 156.27 602.98 167.27 611.59 178.72 619.63 190.36 626.96 201.82 633.85 212.71 639.91 222.96 645.05 232.47 649.66 240.95 653.34 248.67 656.08 255.76 659.17 264.84 661.82 281.06 662.3 289.16 663.06 294.43 664 300.17 665.3 306.46 667.52 312.71 670.3 319.56 673.66 327.05 677.99 334.53 682.76 342.63 687.79 351.33 693.29 360.02 698.56 369.3 703.27 379.18 707.59 389.06 710.68 399.34 712.37 410.01 713.05 420.75 712.13 431.98 709.64 443.71 706.12 455.6 701.23 468.1 695.2 481.21 688.61 494.51 681.28 508.4 673.48 522.78 665.73 537.17 657.9 551.78 650.15 566.31 642.9 580.26 635.93 593.54 629.28 605.65 623.28 616.28 617.57 624.99 612.1 631.31 604.74 636.16 590.5 629.88 583.08 620.93 578.11 614.94 572.74 609.56 566.92 605.93 561.03 605.64 554.63 608.88 547.73 616.25 540.71 628 533.19 643.48 525.21 661.75 517.12 681.43 508.59 700.76 499.68 717.75 490.7 730.81 481.37 738.29 471.75 739.18 462.1 733.93 452.18 722.69 442.05 706.93 431.9 689.58 421.56 672.4 411.05 657.98 400.54 649.12 390.12 646.58 379.8 650.38 369.48 660.27 359.27 674.01 349.18 689.39 339.08 704.9 329.09 717.58 319.23 725.73 309.35 728.88 299.6 725.93 289.99 717.27 280.36 704 270.88 687.09 261.58 668.17 252.29 648.73 243.19 630.21 234.33 613.77 225.52 600.23 216.98 589.98 208.76 583.02 200.64 579.44 192.89 578.41 185.57 579.16 178.4 581.68 171.68 584.53 165.47 587 156.69 589.88 141.99 586.16 136.06 578.95 132.35 572.42 129.1 564.41 126.29 555.22 123.45 545.27 120.96 534.54 118.82 523.34 116.53 511.77 114.52 500.03 112.8 488.32 110.86 476.5 109.19 464.87 107.82 453.53 106.25 442.19 105.03 431.19 104.2 420.57 103.3 409.95 102.9 399.93 103.04 390.47 103.25 380.95 104.08 371.89 105.54 363.23 107.17 354.39 109.47 345.81 112.42 337.36 115.57 328.57 119.35 319.74 123.71 310.73 128.22 301.2 133.25 291.33 138.74 281.02 144.29 270.14 150.21 258.78 156.46 246.99 162.65 234.83 169.11 222.47 175.78 210.12 182.32 198 189.05 186.4 195.95 175.67 202.68 165.96 209.59 157.65 216.66 151.01 223.58 145.82 230.7 142.42 238.01 140.73 245.21 140.02 252.64 140.41 260.31 141.47 267.9 142.11 275.76 142.37 283.87 141.78 291.95 139.47 300.3 135.75 308.92 130.59 317.52 123.82 326.4 116.27 335.53 108.52 344.65 100.92 354.03 94.55 363.65 90.09 373.26 87.61 383.12 87.77 393.22 90.59" stroke-dasharray="16 36" transform="rotate(9.35483870967742, 400, 400)" opacity="0.86"></path><path d="M395.93 101.1C405.71 105.66 415.51 111.75 425.32 118.61 435.13 125.11 444.97 131.01 454.8 135.78 464.66 138.7 474.53 140.13 484.39 140.23 494.28 138.8 504.16 136.84 514 134.89 523.85 132.97 533.63 132.13 543.29 132.77 552.91 134.73 562.33 138.64 571.48 144.43 580.49 151.73 589.12 160.6 597.26 170.67 605.12 181.49 612.38 192.84 618.93 204.35 625.06 215.65 630.41 226.59 634.9 237 638.93 246.62 642.13 255.57 644.5 263.87 646.57 271.31 647.97 278.27 648.81 284.89 649.71 290.86 650.34 296.76 650.86 302.74 651.91 308.36 653.16 314.26 654.74 320.57 657.2 326.71 660.15 333.36 663.6 340.58 667.92 347.74 672.59 355.51 677.45 363.91 682.7 372.28 687.71 381.32 692.17 391.03 696.28 400.75 699.25 410.97 700.92 421.66 701.68 432.4 700.96 443.68 698.78 455.47 695.65 467.34 691.22 479.75 685.67 492.62 679.55 505.51 672.68 518.76 665.27 532.17 657.83 545.32 650.2 558.29 642.57 570.76 635.32 582.4 628.25 592.98 621.44 602.06 615.18 609.63 609.19 615.18 603.42 618.42 595.59 619.44 580.68 609.45 573.14 601.28 568.19 596.86 562.92 593.73 557.28 592.83 551.64 595.39 545.56 601.41 539.04 611.18 532.45 624.63 525.4 641 517.92 659.27 510.35 678.09 502.36 695.86 493.99 710.83 485.56 721.75 476.77 727.27 467.68 726.66 458.55 720.55 449.13 709.14 439.48 693.83 429.81 677.32 419.91 661.1 409.82 647.47 399.72 638.94 389.68 636.14 379.71 639.16 369.75 647.86 359.86 660.31 350.06 674.62 340.27 689.51 330.57 702.29 320.99 711.34 311.4 716.16 301.93 715.49 292.6 709.46 283.27 698.9 274.09 684.41 265.1 667.34 256.14 648.99 247.38 630.65 238.87 613.47 230.43 598.31 222.27 585.78 214.45 576.13 206.74 569.54 199.4 565.57 192.49 563.71 182.58 564.56 165.38 569.45 158.16 570.42 151.65 569.28 141.09 558.14 136.9 548.43 134.19 540.83 131.82 532.25 129.76 522.93 127.54 513.21 125.58 503.02 123.89 492.58 121.99 481.99 120.33 471.31 118.96 460.68 117.4 450.02 116.16 439.48 115.29 429.11 114.36 418.74 113.91 408.76 113.97 399.15 114.1 389.48 114.83 380.1 116.16 370.92 117.66 361.59 119.81 352.33 122.58 343.05 125.56 333.47 129.16 323.73 133.32 313.73 137.64 303.32 142.49 292.55 147.79 281.41 153.16 269.9 158.92 258.08 165.02 246.03 171.08 233.92 177.42 221.89 183.99 210.18 190.44 199 197.09 188.61 203.91 179.32 210.58 171.17 217.41 164.5 224.41 159.49 231.25 155.79 238.27 153.68 245.47 153 252.55 152.96 259.83 153.68 267.33 154.71 274.73 155.04 282.38 154.77 290.26 153.5 298.08 150.49 306.17 146.11 314.5 140.42 322.8 133.31 331.36 125.61 340.17 117.9 348.97 110.48 358.02 104.37 367.32 100.18 376.6 97.93 386.14 98.24 395.92 101.09" stroke-dasharray="2 2" transform="rotate(11.225806451612902, 400, 400)" opacity="0.55"></path><path d="M398.93 111.61C408.4 116.13 417.89 122.15 427.4 128.96 436.91 135.51 446.45 141.57 455.98 146.63 465.53 149.97 475.07 151.89 484.6 152.47 494.13 151.48 503.63 149.8 513.05 147.9 522.46 145.75 531.76 144.4 540.89 144.22 549.94 145.1 558.75 147.73 567.24 152.15 575.56 158.02 583.47 165.54 590.87 174.42 597.98 184.28 604.48 194.95 610.31 206.09 615.75 217.37 620.45 228.59 624.37 239.54 627.92 249.99 630.72 259.92 632.81 269.3 634.71 277.96 636.05 286.1 636.94 293.82 637.97 300.9 638.81 307.75 639.6 314.52 640.92 320.85 642.46 327.3 644.32 333.97 646.97 340.41 650.06 347.23 653.58 354.5 657.85 361.66 662.41 369.36 667.09 377.65 672.1 385.9 676.86 394.79 681.08 404.35 684.98 413.92 687.82 423.97 689.46 434.48 690.3 445.02 689.75 456.03 687.86 467.46 685.1 478.91 681.1 490.71 676.03 502.76 670.39 514.68 663.97 526.67 656.98 538.49 649.89 549.86 642.53 560.72 635.07 570.73 627.9 579.79 620.82 587.56 613.91 593.7 607.48 598.46 601.26 601.29 595.24 602.09 589.69 601.59 584.27 599.32 578.92 595.57 571.37 589.41 556 580.49 547.84 582.1 542.34 587.34 536.49 595.8 530.26 607.51 524 622.15 517.34 638.91 510.27 656.73 503.15 674.36 495.64 690.37 487.75 703.26 479.82 712.11 471.53 715.81 462.93 713.85 454.3 707.03 445.38 695.57 436.19 680.77 426.99 665.1 417.54 649.83 407.88 636.97 398.22 628.75 388.57 625.74 378.98 628.03 369.39 635.6 359.86 646.79 350.4 659.98 340.95 674.12 331.58 686.79 322.32 696.47 313.06 702.67 303.92 704.03 294.92 700.45 285.94 692.56 277.11 680.63 268.48 665.72 259.89 648.95 251.52 631.41 243.4 614.2 235.37 598.14 227.63 583.99 220.23 572.15 212.95 562.9 206.05 556.13 199.56 551.54 190.28 548.71 174.23 549.42 167.51 550.16 161.43 550.07 151.52 543.4 147.57 536.53 144.98 530.98 142.7 524.36 140.71 516.85 138.56 508.96 136.65 500.39 134.98 491.32 133.11 482.08 131.46 472.5 130.09 462.71 128.53 452.88 127.28 442.92 126.39 432.88 125.42 422.85 124.92 412.97 124.91 403.25 124.97 393.48 125.6 383.8 126.81 374.16 128.18 364.38 130.17 354.53 132.77 344.55 135.57 334.34 138.97 323.9 142.92 313.18 147.05 302.2 151.68 290.93 156.78 279.4 161.96 267.74 167.54 255.94 173.46 244.17 179.38 232.62 185.58 221.41 192.01 210.79 198.37 200.9 204.92 192.01 211.64 184.35 218.24 177.86 225 172.83 231.91 169.36 238.69 166.98 245.62 165.92 252.72 165.99 259.7 166.35 266.86 167.13 274.2 167.92 281.46 167.78 288.93 166.86 296.6 164.84 304.22 161.13 312.07 156.12 320.15 149.95 328.19 142.58 336.48 134.8 345 127.18 353.5 120 362.25 114.18 371.24 110.28 380.22 108.26 389.45 108.71 398.92 111.6" stroke-dasharray="18 9" transform="rotate(13.096774193548386, 400, 400)" opacity="0.34"></path><path d="M402 122.11C411.16 126.59 420.34 132.52 429.52 139.26 438.71 145.83 447.9 152.01 457.09 157.32 466.28 161.06 475.46 163.47 484.58 164.57 493.7 164.08 502.76 162.77 511.7 161.05 520.6 158.85 529.36 157.15 537.89 156.34 546.34 156.3 554.5 157.77 562.31 160.86 569.93 165.29 577.11 171.35 583.79 178.87 590.18 187.49 595.99 197.15 601.14 207.53 605.96 218.35 610.1 229.41 613.54 240.47 616.69 251.34 619.2 261.9 621.1 272.05 622.89 281.69 624.23 290.87 625.22 299.63 626.41 307.82 627.47 315.71 628.53 323.39 630.12 330.64 631.92 337.85 634.01 345.13 636.83 352.15 640.03 359.39 643.58 366.94 647.8 374.36 652.23 382.19 656.72 390.51 661.5 398.77 666 407.57 669.99 416.96 673.68 426.34 676.39 436.11 678 446.22 678.89 456.34 678.51 466.79 676.89 477.47 674.47 488.11 670.88 498.88 666.27 509.64 661.1 520.18 655.15 530.48 648.6 540.33 641.89 549.63 634.85 558.15 627.63 565.62 620.6 572.16 613.58 577.32 606.66 580.89 600.13 583.35 593.75 584.14 587.54 583.29 581.76 581.69 576.09 578.91 570.51 575.32 562.64 570.67 546.91 568.17 538.76 573.76 533.34 581.39 527.62 591.86 521.6 604.98 515.58 620.28 509.21 636.93 502.49 653.91 495.73 670.08 488.62 684.21 481.16 695.03 473.67 701.89 465.84 703.91 457.7 700.79 449.53 693.41 441.07 681.99 432.34 667.75 423.6 652.92 414.6 638.58 405.38 626.46 396.15 618.58 386.93 615.38 377.73 617 368.55 623.5 359.4 633.46 350.31 645.5 341.24 658.8 332.24 671.17 323.34 681.22 314.46 688.49 305.69 691.58 297.07 690.23 288.47 684.89 280.04 675.55 271.81 663.01 263.64 648.21 255.69 632 248 615.4 240.41 599.18 233.12 584.11 226.16 570.72 219.33 559.35 212.87 550.14 206.81 542.98 198.16 536.26 183.24 531.22 176.99 530.54 171.32 530.19 162.02 525.6 158.27 520.65 155.8 516.62 153.6 511.57 151.67 505.58 149.58 499.29 147.7 492.2 146.06 484.43 144.21 476.5 142.58 468.04 141.21 459.14 139.66 450.19 138.4 440.88 137.48 431.27 136.49 421.66 135.95 411.99 135.88 402.26 135.86 392.52 136.39 382.68 137.48 372.72 138.72 362.69 140.56 352.47 142.98 342.05 145.59 331.51 148.79 320.72 152.53 309.69 156.44 298.58 160.86 287.27 165.73 275.86 170.71 264.54 176.08 253.3 181.81 242.31 187.55 231.77 193.58 221.78 199.86 212.59 206.09 204.26 212.52 197.02 219.13 191.07 225.64 186.2 232.31 182.7 239.13 180.57 245.83 179.26 252.68 178.98 259.68 179.51 266.56 180 273.61 180.61 280.83 180.95 287.95 180.2 295.27 178.54 302.77 175.75 310.21 171.35 317.86 165.77 325.71 159.2 333.53 151.64 341.57 143.86 349.83 136.39 358.06 129.48 366.53 123.98 375.23 120.38 383.91 118.61 392.84 119.19 401.99 122.11" stroke-dasharray="18 40" transform="rotate(14.96774193548387, 400, 400)" opacity="0.58"></path><path d="M404.93 132.62C413.76 137.04 422.61 142.86 431.44 149.5 440.28 156.05 449.11 162.32 457.9 167.86 466.7 171.98 475.45 174.86 484.12 176.49 492.78 176.54 501.34 175.69 509.75 174.28 518.11 172.19 526.28 170.33 534.19 169.07 542 168.3 549.5 168.77 556.62 170.65 563.55 173.69 570.05 178.29 576.03 184.34 581.76 191.53 586.92 199.91 591.48 209.21 595.77 219.16 599.44 229.62 602.49 240.34 605.33 251.16 607.62 261.9 609.4 272.44 611.15 282.7 612.55 292.61 613.67 302.17 615.03 311.31 616.33 320.13 617.65 328.67 619.48 336.85 621.52 344.88 623.82 352.84 626.78 360.56 630.05 368.35 633.61 376.29 637.75 384.1 642.04 392.18 646.34 400.57 650.88 408.91 655.13 417.64 658.89 426.78 662.39 435.92 664.97 445.28 666.54 454.8 667.47 464.31 667.24 473.94 665.86 483.59 663.76 493.14 660.56 502.6 656.39 511.79 651.69 520.69 646.21 529.13 640.11 536.88 633.81 544.09 627.12 550.35 620.19 555.48 613.37 559.82 606.49 562.84 599.63 564.45 593.08 565.3 586.62 564.84 580.29 563.21 574.33 561.36 568.47 558.9 562.7 556.24 554.52 553.98 538.38 558.47 530.17 567.72 524.75 577.33 519.11 589.31 513.22 603.3 507.37 618.75 501.22 634.86 494.77 650.65 488.31 665.16 481.53 677.32 474.44 686.1 467.32 691.1 459.9 691.61 452.18 687.49 444.44 679.69 436.41 668.41 428.13 654.77 419.83 640.79 411.27 627.35 402.49 615.95 393.71 608.4 384.91 605.06 376.14 606.07 367.37 611.56 358.63 620.32 349.95 631.21 341.29 643.58 332.7 655.48 324.2 665.65 315.73 673.7 307.38 678.22 299.17 678.83 291.01 675.86 283.01 669.06 275.22 658.99 267.49 646.43 259.99 631.99 252.77 616.56 245.64 600.84 238.8 585.57 232.31 571.34 225.93 558.5 219.92 547.36 214.29 538.01 208.8 530.53 203.71 524.69 199.04 520.2 186.87 513.67 172.58 506.5 169.01 502.42 165.57 497.27 159.67 482.31 157.13 472.68 155.3 465.88 153.69 458.42 152.32 450.37 150.77 442.27 149.51 433.65 148.58 424.54 147.57 415.43 146.99 406.08 146.86 396.52 146.78 386.96 147.22 377.17 148.18 367.17 149.3 357.14 150.98 346.87 153.22 336.39 155.65 325.88 158.64 315.17 162.15 304.31 165.84 293.52 170.02 282.67 174.66 271.9 179.41 261.39 184.56 251.16 190.06 241.38 195.61 232.19 201.45 223.72 207.55 216.18 213.62 209.5 219.91 203.95 226.38 199.64 232.78 196.25 239.34 194.06 246.05 193.01 252.65 192.46 259.41 192.66 266.3 193.35 273.09 193.71 280.04 193.92 287.13 193.65 294.13 192.18 301.31 189.74 308.65 186.18 315.93 181.14 323.39 175.06 331.04 168.16 338.65 160.5 346.46 152.79 354.48 145.54 362.46 138.95 370.66 133.79 379.07 130.5 387.47 128.97 396.09 129.69 404.92 132.62" stroke-dasharray="39 20" transform="rotate(16.838709677419356, 400, 400)" opacity="0.46"></path><path d="M407.51 143.13C416.01 147.48 424.49 153.17 432.95 159.69 441.41 166.19 449.84 172.52 458.21 178.24 466.58 182.69 474.87 186.03 483.06 188.18 491.22 188.81 499.24 188.49 507.09 187.49 514.87 185.65 522.43 183.81 529.72 182.31 536.89 181.02 543.73 180.7 550.18 181.54 556.46 183.32 562.3 186.51 567.65 191.09 572.78 196.76 577.38 203.68 581.43 211.64 585.26 220.4 588.55 229.88 591.29 239.84 593.91 250.13 596.06 260.6 597.78 271.06 599.55 281.48 601.04 291.72 602.32 301.72 603.87 311.47 605.39 320.94 606.96 330.15 609.02 339.08 611.27 347.81 613.74 356.38 616.8 364.75 620.12 373.07 623.66 381.39 627.71 389.61 631.85 397.92 635.95 406.37 640.25 414.78 644.26 423.4 647.8 432.22 651.09 441.04 653.55 449.87 655.08 458.66 656.04 467.42 655.94 476.08 654.78 484.54 652.97 492.88 650.15 500.89 646.4 508.44 642.14 515.7 637.13 522.31 631.49 528.11 625.62 533.43 619.32 537.78 612.73 541.02 606.18 543.69 599.5 545.22 592.78 545.62 586.28 545.63 579.82 544.74 573.45 543.16 564.38 541.1 547.03 539.93 538.62 543.19 533.23 547.99 527.76 554.8 522.19 563.76 516.74 574.88 511.13 587.81 505.32 602.14 499.57 617.26 493.57 632.44 487.33 646.77 481.1 659.48 474.59 669.65 467.81 676.47 461.02 679.75 453.95 678.93 446.61 673.99 439.26 665.89 431.64 654.84 423.77 641.83 415.89 628.7 407.77 616.14 399.43 605.45 391.08 598.23 382.73 594.77 374.38 595.23 366.05 599.79 357.75 607.4 349.5 617.13 341.27 628.5 333.11 639.78 325.05 649.86 317.03 658.41 309.12 664.04 301.36 666.32 293.65 665.47 286.12 661.06 278.79 653.46 271.54 643.29 264.52 630.93 257.76 617.13 251.11 602.51 244.74 587.71 238.71 573.33 232.79 559.73 227.21 547.33 222.01 536.32 216.93 526.81 212.22 518.79 207.91 512.12 201.77 504.7 191.44 495.04 187.18 491.35 183.19 488.02 176.46 479.12 173.6 473.01 171.6 468.62 169.79 463.47 168.18 457.6 166.38 451.64 164.78 444.98 163.41 437.67 161.88 430.31 160.62 422.35 159.67 413.79 158.65 405.24 158.04 396.33 157.85 387.11 157.71 377.92 158.06 368.42 158.92 358.67 159.91 348.95 161.44 338.99 163.5 328.85 165.74 318.78 168.51 308.59 171.8 298.36 175.25 288.32 179.19 278.38 183.57 268.68 188.08 259.37 192.99 250.49 198.25 242.22 203.57 234.59 209.19 227.78 215.08 221.93 220.97 216.89 227.08 212.91 233.39 210.06 239.64 207.91 246.06 206.73 252.64 206.43 259.13 206.34 265.77 206.7 272.54 207.25 279.23 207.24 286.06 206.87 293.02 205.87 299.9 203.62 306.94 200.39 314.12 196.1 321.25 190.48 328.54 183.98 335.99 176.86 343.4 169.18 351 161.61 358.77 154.63 366.52 148.4 374.46 143.6 382.58 140.63 390.69 139.35 399 140.19 407.5 143.12" stroke-dasharray="42 33" transform="rotate(18.70967741935484, 400, 400)" opacity="0.57"></path><path d="M409.55 153.63C417.69 157.9 425.81 163.45 433.87 169.82 441.93 176.25 449.94 182.59 457.85 188.45 465.76 193.2 473.57 196.96 481.24 199.63 488.88 200.84 496.35 201.1 503.62 200.59 510.82 199.15 517.77 197.49 524.43 195.95 534.09 193.91 551.31 195.15 558.71 199.29 563.32 203.45 567.44 208.84 571.06 215.33 574.52 222.66 577.51 230.86 580.04 239.71 582.49 249.06 584.57 258.8 586.3 268.74 588.12 278.84 589.73 288.94 591.19 298.94 592.93 308.87 594.67 318.62 596.47 328.15 598.73 337.52 601.15 346.69 603.76 355.65 606.9 364.49 610.24 373.18 613.74 381.75 617.67 390.26 621.64 398.71 625.55 407.13 629.62 415.54 633.39 423.96 636.7 432.38 639.81 440.8 642.14 449.03 643.61 457.01 644.59 464.96 644.6 472.6 643.65 479.86 642.11 486.99 639.63 493.63 636.28 499.66 632.46 505.44 627.91 510.48 622.73 514.69 617.3 518.54 611.42 521.48 605.21 523.46 598.97 525.11 592.55 525.87 586.03 525.83 579.67 525.76 573.29 525.2 566.94 524.4 560.83 524.19 554.78 524.28 548.78 525.05 543.02 527.2 537.3 530.61 531.58 535.57 526.07 542.45 520.51 551.13 514.88 561.58 509.39 573.66 503.77 587.02 498.01 601.18 492.32 615.55 486.44 629.47 480.35 642.14 474.3 652.97 468.01 661.18 461.49 666.15 454.98 667.87 448.22 665.89 441.22 660.29 434.21 652.04 426.97 641.29 419.49 628.95 412.01 616.65 404.31 604.94 396.4 594.94 388.49 588.05 380.58 584.52 372.68 584.48 364.79 588.16 356.93 594.68 349.13 603.27 341.36 613.59 333.66 624.13 326.06 633.92 318.5 642.7 311.06 649.14 303.78 652.78 296.55 653.77 289.49 651.55 282.65 646.3 275.88 638.56 269.34 628.47 263.07 616.63 256.89 603.58 250.99 589.85 245.42 575.99 239.94 562.35 234.79 549.37 230 537.35 225.3 526.4 220.96 516.66 216.98 508.12 213.07 500.8 209.5 494.52 206.29 489.08 201.65 482.57 193.85 471.97 190.57 466.86 187.35 461.72 181.7 449.05 179.22 441.22 177.44 435.76 175.86 429.66 174.5 422.92 172.98 416.15 171.72 408.77 170.76 400.78 169.74 392.8 169.1 384.43 168.86 375.74 168.67 367.07 168.94 358.11 169.68 348.91 170.55 339.78 171.93 330.47 173.81 321.05 175.87 311.77 178.43 302.47 181.48 293.28 184.7 284.34 188.38 275.64 192.5 267.32 196.75 259.45 201.39 252.12 206.39 245.49 211.46 239.48 216.84 234.3 222.49 230.07 228.16 226.49 234.07 223.86 240.17 222.18 246.25 220.95 252.51 220.45 258.92 220.55 265.27 220.59 271.77 220.81 278.39 220.97 284.95 220.4 291.64 219.31 298.46 217.48 305.21 214.43 312.1 210.43 319.11 205.48 326.08 199.37 333.19 192.56 340.45 185.31 347.67 177.7 355.04 170.35 362.57 163.69 370.08 157.84 377.75 153.43 385.58 150.79 393.4 149.74 401.39 150.7 409.54 153.63" stroke-dasharray="20 29" transform="rotate(20.580645161290324, 400, 400)" opacity="0.15"></path><path d="M410.9 164.14C418.69 168.3 426.41 173.7 434.06 179.9 441.7 186.22 449.26 192.54 456.71 198.49 464.14 203.49 471.45 207.63 478.59 210.78 485.7 212.58 492.62 213.44 499.31 213.5 505.93 212.55 512.3 211.23 518.36 209.83 527.14 207.55 542.68 206.66 549.33 209.03 553.48 211.79 557.2 215.69 560.48 220.66 563.66 226.46 566.43 233.18 568.81 240.67 571.17 248.77 573.23 257.4 575.01 266.42 576.91 275.74 578.66 285.25 580.3 294.81 582.23 304.46 584.17 314.04 586.18 323.49 588.6 332.91 591.16 342.16 593.88 351.21 597.06 360.2 600.39 369.01 603.83 377.62 607.63 386.21 611.43 394.64 615.14 402.9 618.97 411.16 622.51 419.29 625.61 427.24 628.52 435.19 630.72 442.78 632.15 449.96 633.14 457.11 633.24 463.8 632.47 469.98 630.1 478.79 620.59 492.9 613.82 497.97 608.84 500.88 603.39 503.01 597.59 504.4 591.71 505.71 585.61 506.42 579.35 506.66 573.19 507.17 566.96 507.55 560.71 508.07 554.65 509.39 548.6 511.31 542.58 514.12 536.77 518.32 530.98 523.81 525.2 530.76 519.6 539.32 513.97 549.37 508.3 560.78 502.77 573.28 497.14 586.54 491.41 600.07 485.76 613.34 479.96 625.76 474 636.64 468.09 645.57 461.98 651.89 455.69 655.15 449.4 655.48 442.91 652.53 436.22 646.43 429.53 638.14 422.63 627.77 415.53 616.12 408.42 604.65 401.12 593.77 393.64 584.43 386.15 577.88 378.67 574.3 371.22 573.82 363.77 576.7 356.37 582.19 349.04 589.66 341.72 598.91 334.49 608.61 327.37 617.94 320.28 626.7 313.33 633.65 306.53 638.32 299.79 640.84 293.22 640.54 286.87 637.47 280.59 632.08 274.53 624.32 268.74 614.64 263.02 603.52 257.58 591.32 252.45 578.54 247.4 565.52 242.66 552.67 238.25 540.32 233.92 528.59 229.91 517.74 226.24 507.84 222.61 498.9 219.29 490.9 216.3 483.76 211.94 474.65 204.52 459.83 201.36 453.24 198.24 447.03 192.69 433.51 190.23 425.78 188.48 420.49 186.92 414.68 185.57 408.33 184.07 401.97 182.82 395.08 181.86 387.65 180.83 380.22 180.17 372.45 179.89 364.41 179.64 356.41 179.84 348.17 180.48 339.77 181.23 331.45 182.47 323.05 184.18 314.65 186.04 306.42 188.39 298.29 191.21 290.38 194.18 282.77 197.61 275.5 201.45 268.72 205.43 262.36 209.79 256.62 214.5 251.6 219.31 247.1 224.42 243.4 229.8 240.54 235.23 238.16 240.89 236.55 246.77 235.69 252.63 235.02 258.68 234.84 264.89 235 271.07 234.86 277.39 234.68 283.84 234.24 290.24 232.95 296.77 231.05 303.41 228.38 310.01 224.54 316.72 219.84 323.56 214.31 330.35 207.82 337.27 200.8 344.32 193.53 351.33 186.08 358.48 179.01 365.75 172.73 373.01 167.3 380.41 163.28 387.93 160.96 395.45 160.15 403.11 161.22 410.89 164.14" stroke-dasharray="17 14" transform="rotate(22.451612903225804, 400, 400)" opacity="0.77"></path><path d="M411.48 174.65C418.88 178.7 426.2 183.92 433.42 189.93 440.63 196.11 447.74 202.37 454.7 208.37 461.66 213.57 468.46 218.03 475.07 221.63 481.65 223.99 488.03 225.46 494.17 226.12 503.15 225.32 519.53 221.61 526.82 220.03 533.59 219.34 545.08 223.11 549.8 227.92 552.76 232.18 555.38 237.38 557.68 243.38 560 250.01 562.08 257.29 563.94 265.07 565.95 273.27 567.84 281.79 569.67 290.51 571.77 299.44 573.89 308.43 576.07 317.39 578.63 326.43 581.3 335.38 584.09 344.16 587.28 352.95 590.57 361.57 593.93 369.97 597.59 378.38 601.21 386.57 604.71 394.53 608.31 402.48 611.62 410.2 614.52 417.64 617.24 425.07 619.32 432.03 620.68 438.49 621.76 447.87 619.24 463.69 615.7 469.99 610.85 475.49 597.71 483.19 589.83 485.61 584.35 487.18 578.6 488.44 572.66 489.55 566.76 491.12 560.75 492.86 554.68 495 548.74 498.05 542.77 501.86 536.81 506.64 531.01 512.69 525.21 519.94 519.42 528.44 513.79 538.21 508.13 549.09 502.45 560.89 496.89 573.3 491.27 585.99 485.57 598.51 479.96 610.39 474.23 621.13 468.38 630.17 462.58 637.23 456.64 641.78 450.54 643.49 444.46 642.63 438.22 638.88 431.8 632.44 425.39 624.22 418.81 614.29 412.06 603.35 405.31 592.7 398.39 582.62 391.32 573.92 384.25 567.72 377.2 564.11 370.19 563.25 363.19 565.39 356.24 569.91 349.37 576.3 342.52 584.46 335.76 593.26 329.12 601.97 322.52 610.5 316.05 617.69 309.74 623.08 303.48 626.79 297.4 628.1 291.53 626.97 285.72 623.76 280.14 618.27 274.81 610.82 269.54 601.83 264.54 591.5 259.83 580.27 255.18 568.42 250.82 556.32 246.77 544.32 242.77 532.51 239.07 521.2 235.68 510.56 232.3 500.54 229.21 491.3 226.41 482.82 223.59 475.04 221.02 467.92 218.7 461.35 215.22 452.49 209.11 436.59 206.41 428.93 203.65 421.37 198.74 405.07 196.62 396.08 195.15 389.97 193.92 383.45 192.95 376.53 191.93 369.61 191.25 362.47 190.93 355.16 190.65 347.88 190.77 340.48 191.31 333.03 191.96 325.67 193.05 318.34 194.59 311.12 196.27 304.08 198.42 297.25 201 290.74 203.73 284.5 206.89 278.7 210.45 273.42 216.18 266.37 229.55 256.16 237.06 253.09 244.91 251.07 261.73 249.59 270.61 249.38 276.57 248.81 282.68 248.01 288.91 246.81 295.12 244.71 301.45 241.96 307.89 238.47 314.3 233.91 320.82 228.6 327.44 222.6 334.04 215.84 340.75 208.74 347.56 201.55 354.34 194.34 361.24 187.63 368.25 181.76 375.24 176.77 382.35 173.16 389.55 171.17 396.75 170.58 404.07 171.75 411.47 174.64" stroke-dasharray="29 36" transform="rotate(24.322580645161292, 400, 400)" opacity="0.25"></path><path d="M411.23 185.16C418.24 189.09 425.15 194.12 431.93 199.92 438.7 205.93 445.35 212.08 451.84 218.07 458.31 223.41 464.62 228.15 470.72 232.14 479.73 236.05 496.48 238.48 504.14 237.69 517.78 234.44 534.72 234.22 539.12 237.2 543.2 241.93 550.12 256.32 553.14 265.6 555.27 272.43 557.31 279.69 559.3 287.26 561.55 295.12 563.83 303.16 566.15 311.28 568.81 319.57 571.56 327.84 574.38 336.02 577.55 344.28 580.78 352.4 584.03 360.33 587.54 368.29 590.98 376.04 594.27 383.52 597.64 391.03 600.73 398.25 603.42 405.14 605.97 412.04 607.91 418.43 609.22 424.29 610.32 432.78 608.32 446.95 605.24 452.62 600.96 457.71 589.13 465.62 581.92 468.8 576.85 471.1 571.5 473.35 565.92 475.69 560.33 478.61 554.6 481.91 548.77 485.75 543.02 490.49 537.21 496.04 531.38 502.52 525.66 510.06 519.93 518.62 514.19 528.17 508.59 538.58 502.95 549.74 497.3 561.41 491.76 573.25 486.17 584.99 480.52 596.18 474.96 606.49 469.31 615.46 463.57 622.65 457.89 627.94 452.09 630.86 446.17 631.22 440.29 629.35 434.26 624.98 428.11 618.34 421.97 610.29 415.68 600.86 409.27 590.64 402.85 580.79 396.3 571.49 389.63 563.42 382.96 557.55 376.32 553.96 369.75 552.76 363.18 554.24 356.68 557.86 350.27 563.22 343.88 570.3 337.58 578.14 331.42 586.13 325.29 594.22 319.29 601.4 313.47 607.21 304.87 613.08 288.75 611.91 281.3 604.95 276.46 598.16 271.87 589.89 267.55 580.5 263.27 570.26 259.26 559.43 255.54 548.34 251.84 537.1 248.42 526 245.27 515.25 242.12 504.82 239.23 494.92 236.6 485.61 233.93 476.8 231.48 468.57 229.26 460.88 226.96 453.66 224.85 446.86 222.94 440.41 220.89 434.28 219.02 428.35 217.31 422.52 215.45 416.88 213.74 411.22 212.2 405.48 210.51 399.82 208.99 393.99 207.67 387.97 206.22 381.96 205.01 375.73 204.05 369.26 203.03 362.79 202.34 356.25 201.99 349.68 201.67 343.14 201.73 336.6 202.18 330.15 202.72 323.77 203.68 317.54 205.06 311.53 207.53 302.89 214.78 287.76 219.51 281.58 224.8 276.36 237.25 269.21 244.28 267.2 251.68 265.78 267.64 264.17 276.1 263.27 281.8 262.05 287.66 260.49 293.64 258.44 299.61 255.52 305.71 251.95 311.91 247.69 318.1 242.51 324.39 236.71 330.77 230.38 337.14 223.49 343.6 216.42 350.15 209.41 356.69 202.52 363.32 196.23 370.03 190.81 376.73 186.28 383.53 183.08 390.4 181.4 397.26 181.03 404.21 182.3 411.22 185.15" stroke-dasharray="23 20" transform="rotate(26.193548387096772, 400, 400)" opacity="0.71"></path><path d="M410.18 195.66C416.79 199.46 423.27 204.28 429.61 209.85 435.95 215.66 442.14 221.67 448.16 227.61 454.17 233.03 459.99 237.97 465.61 242.29 473.9 246.96 489.23 251.25 496.22 251.32 508.69 248.76 524.36 246.93 528.55 248.47 532.51 251.37 539.48 261.59 542.64 268.7 544.88 274.07 547.05 279.93 549.19 286.19 551.57 292.75 553.97 299.6 556.4 306.64 559.13 313.86 561.92 321.18 564.75 328.5 567.87 335.94 571.02 343.31 574.15 350.55 577.49 357.84 580.73 364.96 583.82 371.86 586.96 378.78 589.83 385.45 592.33 391.81 595.61 401.12 598.86 417.35 598.67 424.27 597.31 430.72 590.93 441.59 586.08 446.24 580.37 450.91 566.72 460.43 559.06 465.9 553.84 470.22 548.44 475.03 542.9 480.45 537.41 486.66 531.83 493.62 526.19 501.38 520.63 509.95 515.04 519.3 509.42 529.33 503.9 539.87 498.35 550.79 492.78 561.84 487.3 572.73 481.78 583.19 476.23 592.85 470.74 601.46 465.19 608.65 459.58 614.06 454.02 617.69 448.37 619.17 442.64 618.36 436.94 615.68 431.14 610.87 425.24 604.17 419.35 596.37 413.35 587.48 407.26 577.99 401.17 568.92 394.97 560.37 388.68 552.91 382.39 547.38 376.16 543.83 370.01 542.35 363.86 543.24 357.8 546.02 351.84 550.41 345.89 556.44 340.05 563.29 334.35 570.46 328.67 577.98 323.13 584.91 317.77 590.86 309.85 597.74 295.05 600.92 288.21 596.91 283.77 592.25 279.55 586.09 275.59 578.69 271.66 570.33 267.97 561.15 264.53 551.42 261.11 541.3 257.93 531.01 255 520.76 252.05 510.55 249.33 500.61 246.84 491.06 244.3 481.77 241.97 472.94 239.83 464.57 237.61 456.52 235.56 448.9 233.69 441.66 231.7 434.69 229.85 428 228.17 421.55 226.34 415.27 224.66 409.12 223.14 403.05 221.49 397.07 220 391.09 218.7 385.1 217.29 379.13 216.09 373.1 215.14 367.02 214.14 360.93 213.44 354.93 213.07 349.05 212.71 340.33 213.94 323.88 215.58 316.35 217.78 309.33 224.33 297.52 228.64 292.9 233.49 289.01 244.98 283.78 251.52 282.24 258.43 280.84 273.43 278.18 281.43 276.27 286.84 274.29 292.41 271.89 298.1 268.98 303.8 265.26 309.62 260.94 315.55 256.02 321.46 250.35 327.49 244.2 333.59 237.69 339.69 230.79 345.88 223.87 352.14 217.14 358.39 210.66 364.72 204.82 371.12 199.88 377.51 195.82 383.97 193.03 390.48 191.67 397 191.51 403.57 192.85 410.17 195.66" stroke-dasharray="39 6" transform="rotate(28.06451612903226, 400, 400)" opacity="0.85"></path><path d="M408.4 206.17C414.59 209.82 420.65 214.43 426.56 219.75 432.46 225.33 438.21 231.16 443.78 236.99 454.88 247.28 465.23 255.62 474.67 261.43 483.99 263.68 492.34 264.01 499.62 263.41 509.89 261.01 525.92 265.66 532.47 274.79 537.33 283.08 542.08 293.28 546.83 304.72 552.59 316.96 558.47 329.76 564.26 342.52 567.42 348.99 570.47 355.37 573.35 361.61 576.27 367.87 578.93 373.95 581.23 379.81 584.28 388.42 587.4 403.77 587.33 410.56 585.97 419.47 582.25 427.29 576.48 434.48 569.79 442.52 561.5 450.93 552.05 460.51 542.35 472.21 531.95 486.15 521.15 502.62 510.56 521.2 499.73 541.39 488.81 561.68 478.16 580.32 467.35 595.35 456.39 604.37 445.6 607.08 434.53 602.07 423.22 589.94 417.59 582.48 411.87 574.16 406.09 565.41 400.31 557.1 394.46 549.28 388.54 542.4 379.7 535.47 362.47 533.4 354.12 537.9 343.07 549.18 332.53 562.33 322.65 574.23 312.84 584.13 303.75 588.47 295.51 586.7 287.36 580.03 280.07 568.14 273.7 552.7 267.33 535.02 261.79 516.28 257.11 497.81 252.2 479.62 247.96 462.65 244.4 447.15 240.39 432.39 236.92 418.75 234.06 406.05 232.44 399.81 230.99 393.71 229.71 387.74 227.75 378.86 224.9 361.64 224.16 353.59 223.78 348.3 223.73 343.28 224.02 338.54 224.8 329.16 227.08 321.12 230.77 314.69 234.92 308.54 240.49 304.07 247.31 301.17 254.52 298.05 262.84 295.78 272.05 293.73 281.47 289.91 291.64 284.98 302.36 278.29 313.14 268.75 324.39 257.31 335.98 244.58 347.57 231.02 359.48 218.58 371.58 209 377.64 205.42 383.74 203.03 389.88 201.97 396.02 202.01 402.2 203.42 408.39 206.17" stroke-dasharray="3 30" transform="rotate(29.93548387096774, 400, 400)" opacity="0.28"></path><path d="M406.02 216.68C417.57 224.32 428.55 234.75 438.85 246.21 449.1 256.54 458.62 265.4 467.29 272.13 475.88 275.67 483.59 277.31 490.36 277.73 500.06 276.03 515.85 277.87 522.63 283.96 527.63 289.73 532.54 297.39 537.4 306.47 543.12 316.24 548.85 326.88 554.37 337.88 560.42 349.1 565.84 360.3 570.14 371.11 574.05 381.93 576.02 391.81 575.96 400.84 574.91 410.04 571.75 418.8 566.7 427.53 560.82 437.14 553.41 447.57 544.83 459.35 535.95 472.83 526.29 488.24 516.15 505.45 506.1 523.73 495.75 542.59 485.25 560.49 474.95 576.1 464.48 587.74 453.91 593.62 443.47 593.99 432.83 587.76 422.04 575.68 411.3 561.32 400.33 545.7 389.22 531.9 378.11 523.89 367.37 521.94 357.12 525.67 346.88 534.98 337.16 546.42 328.09 557.45 319.07 567.6 310.73 573.52 303.18 574.42 295.66 571.29 288.92 563.25 283.02 551.47 277.06 537.17 271.84 521.05 267.38 504.39 262.66 487.35 258.56 470.88 255.07 455.47 251.16 440.43 247.76 426.47 244.95 413.62 241.7 400.99 239.1 389.17 237.33 378.21 235.38 367.25 234.59 357.59 235 349.27 235.6 340.98 237.58 334.13 240.87 328.78 244.55 323.42 249.56 319.42 255.74 316.52 262.28 312.99 269.89 309.81 278.37 306.37 287.07 301.06 296.51 294.5 306.51 286.3 316.6 275.76 327.17 263.8 338.05 251.12 348.96 238.19 360.18 226.72 371.54 218.19 382.93 212.86 394.46 212.25 406.01 216.67" stroke-dasharray="10 40" transform="rotate(31.806451612903224, 400, 400)" opacity="0.10"></path><path d="M403.21 227.18C413.92 234.43 424.07 244.29 433.56 255.29 443.02 265.52 451.79 274.72 459.78 282.2 467.73 286.93 474.91 289.87 481.27 291.49 490.53 291.06 506.16 291.95 513.13 295.92 518.23 299.74 523.22 305.28 528.12 312.28 533.72 319.81 539.24 328.42 544.48 337.74 550.12 347.24 555.11 357.12 559.05 367.14 562.65 377.17 564.51 386.85 564.56 396.25 563.79 405.84 561.12 415.56 556.74 425.7 551.63 436.6 545.07 448.55 537.38 461.8 529.34 476.21 520.49 492.06 511.1 508.95 501.7 526.04 491.94 542.82 481.97 557.89 472.14 570.33 462.13 578.74 452.02 581.83 442.02 580.29 431.86 573.22 421.62 561.43 411.42 548.12 401.07 533.95 390.67 521.39 380.26 513.81 370.27 511.34 360.79 513.75 351.31 521.18 342.36 530.85 334.04 540.73 325.73 550.6 318.06 557.42 311.12 560.29 304.17 560.07 297.93 555.48 292.43 547.25 286.83 536.53 281.88 523.54 277.61 509.38 273.08 494.39 269.09 479.33 265.68 464.83 261.87 450.37 258.55 436.76 255.8 424.2 252.67 411.76 250.15 400.26 248.42 389.81 246.53 379.37 245.72 370.39 246.01 362.82 246.46 355.21 248.16 348.97 251.06 344.01 254.3 338.82 258.76 334.62 264.31 331.09 270.18 326.69 277.07 322.24 284.8 317.23 292.75 310.44 301.42 302.43 310.65 293.02 319.99 281.84 329.8 269.71 339.93 257.4 350.1 245.31 360.56 234.92 371.15 227.46 381.76 222.99 392.5 222.82 403.21 227.18" stroke-dasharray="36 35" transform="rotate(33.67741935483871, 400, 400)" opacity="0.62"></path><path d="M400.17 237.69C410.04 244.52 419.39 253.78 428.13 264.22 436.84 274.23 444.93 283.58 452.33 291.62 459.72 297.39 466.44 301.56 472.48 304.43 481.37 305.67 496.88 307.26 503.98 310.11 509.1 312.64 514.1 316.64 518.96 322.03 524.39 327.74 529.66 334.64 534.58 342.51 539.8 350.49 544.37 359.22 547.95 368.55 551.25 377.88 552.99 387.4 553.13 397.12 552.59 407.02 550.37 417.45 546.61 428.57 542.22 440.25 536.47 453 529.65 466.8 522.48 481.24 514.47 496.57 505.88 512.2 497.23 527.37 488.15 541.56 478.83 553.57 469.58 562.9 460.12 568.36 450.57 569.09 441.09 566.06 431.48 558.49 421.82 547.2 412.2 535.01 402.49 522.24 392.79 510.88 383.08 503.76 373.81 500.87 365.05 502.11 356.29 507.8 348.04 515.69 340.39 524.22 332.74 533.37 325.67 540.47 319.27 544.61 312.83 546.57 307.02 544.85 301.86 539.82 296.58 532.56 291.88 522.84 287.77 511.55 283.42 499.2 279.56 486.24 276.22 473.32 272.53 460.21 269.3 447.57 266.62 435.74 263.61 423.95 261.19 413.01 259.51 403.08 257.7 393.16 256.88 384.64 257.06 377.44 257.37 370.14 258.82 364.01 261.35 358.88 264.17 353.37 268.1 348.49 273.04 343.91 278.26 338.38 284.44 332.53 291.4 325.99 298.58 317.91 306.46 308.76 314.88 298.54 323.43 287.09 332.44 275.17 341.76 263.51 351.14 252.44 360.79 243.21 370.57 236.83 380.38 233.19 390.29 233.41 400.17 237.69" stroke-dasharray="36 5" transform="rotate(35.54838709677419, 400, 400)" opacity="0.54"></path><path d="M397.11 248.2C406.16 254.59 414.74 263.21 422.77 273.03 430.79 282.67 438.27 292 445.14 300.39 452.03 306.97 458.36 312.22 464.13 316.28 472.69 319.4 488.03 322.99 495.15 325.63 500.24 327.56 505.17 330.67 509.91 335 515.11 339.44 520.08 345.08 524.66 351.82 529.46 358.61 533.62 366.39 536.86 375.1 539.86 383.82 541.48 393.11 541.68 402.93 541.34 412.9 539.51 423.62 536.31 435.09 532.58 446.91 527.61 459.64 521.62 473.08 515.31 486.69 508.17 500.63 500.43 514.29 492.58 527.04 484.27 538.38 475.68 547.33 467.1 553.76 458.3 556.66 449.38 555.48 440.5 551.38 431.51 543.65 422.49 533.03 413.49 521.98 404.44 510.58 395.42 500.37 386.4 493.73 377.82 490.54 369.75 490.78 361.66 494.87 354.07 501.03 347.03 508.08 339.97 516.18 333.45 523.02 327.53 527.77 318.83 531.39 304.03 521.7 297.84 510.02 293.66 500.55 289.92 490.08 286.67 479.21 283.12 467.98 280 456.82 277.41 446.11 274.53 435.37 272.22 425.21 270.61 415.85 268.87 406.48 268.05 398.29 268.15 391.17 268.33 383.92 269.55 377.55 271.75 371.87 274.17 365.76 277.61 359.95 281.95 354.16 286.55 347.47 292.02 340.32 298.23 332.49 304.64 323.46 311.71 313.58 319.31 302.99 327.03 291.69 335.2 280.32 343.69 269.56 352.24 259.66 361.05 251.64 370 246.31 378.98 243.46 388.06 244.04 397.11 248.2" stroke-dasharray="37 3" transform="rotate(37.41935483870968, 400, 400)" opacity="0.87"></path><path d="M394.26 258.71C402.51 264.64 410.34 272.59 417.71 281.71 425.07 290.87 431.97 299.98 438.38 308.5 444.81 315.65 450.78 321.77 456.29 326.87 464.54 331.86 479.59 338.28 486.64 341.46 491.6 343.4 496.4 346.22 500.96 350.03 505.87 353.79 510.51 358.64 514.73 364.6 519.1 370.54 522.86 377.58 525.77 385.73 528.48 393.87 529.96 402.8 530.21 412.39 530.03 422.08 528.54 432.56 525.85 443.72 522.72 455.01 518.47 466.94 513.29 479.2 507.8 491.28 501.53 503.23 494.65 514.43 487.65 524.54 480.16 533 472.36 539.06 464.54 542.94 456.46 543.73 448.25 541.12 440.06 536.34 431.74 528.73 423.4 518.93 415.07 509.05 406.7 498.97 398.38 489.87 390.06 483.72 382.16 480.33 374.73 479.73 367.29 482.4 360.3 486.93 353.83 492.45 347.32 499.25 341.29 505.41 335.8 510.19 327.68 515.24 313.71 512.01 307.79 504.34 303.78 497.67 300.19 489.76 297.04 481.1 293.63 472.03 290.65 462.65 288.16 453.32 285.43 443.92 283.24 434.75 281.7 426.02 280.05 417.29 279.25 409.37 279.27 402.19 279.36 394.89 280.36 388.13 282.25 381.74 284.31 374.96 287.28 368.21 291.07 361.3 295.07 353.65 299.86 345.51 305.34 336.78 310.98 327.22 317.26 317.08 324.03 306.59 330.91 295.82 338.23 285.31 345.87 275.66 353.57 267.02 361.53 260.23 369.64 255.93 377.77 253.81 386.02 254.7 394.26 258.71" stroke-dasharray="40 20" transform="rotate(39.29032258064516, 400, 400)" opacity="0.61"></path><path d="M391.83 269.21C399.28 274.67 406.4 281.92 413.13 290.3 419.87 298.85 426.23 307.58 432.18 315.99 438.17 323.43 443.81 330.15 449.06 336.05 454.42 340.7 459.48 344.71 464.23 348.29 471.56 352.27 485.48 360.39 492.09 365.64 496.66 369.22 500.94 373.72 504.78 379.2 508.73 384.64 512.09 391.12 514.68 398.7 517.1 406.27 518.45 414.64 518.73 423.65 518.67 432.71 517.48 442.43 515.24 452.64 512.65 462.82 509.06 473.32 504.63 483.8 499.94 493.87 494.51 503.47 488.49 512.04 482.34 519.5 475.71 525.25 468.74 528.79 461.73 530.55 454.45 529.71 447 526.14 439.56 521.05 431.97 513.8 424.35 504.94 416.73 496.23 409.07 487.41 401.46 479.36 393.84 473.72 386.6 470.24 379.8 468.97 372.98 470.4 366.57 473.44 360.62 477.47 354.62 482.84 349.06 488 343.95 492.34 336.39 497.82 323.23 498.97 317.58 494.54 313.77 490.29 310.33 484.73 307.31 478.2 304.07 471.29 301.23 463.77 298.87 455.93 296.31 448 294.25 439.95 292.8 431.93 291.25 423.91 290.46 416.3 290.43 409.08 290.43 401.76 291.25 394.65 292.86 387.65 294.59 380.33 297.13 372.86 300.4 365.14 303.83 356.88 307.98 348.19 312.75 339.07 317.66 329.47 323.15 319.55 329.11 309.6 335.17 299.7 341.65 290.31 348.44 281.93 355.28 274.59 362.39 269.02 369.66 265.7 376.95 264.24 384.37 265.39 391.83 269.21" stroke-dasharray="18 38" transform="rotate(41.16129032258065, 400, 400)" opacity="0.77"></path><path d="M389.97 279.72C396.65 284.69 403.07 291.22 409.19 298.79 415.31 306.64 421.15 314.81 426.66 322.9 432.21 330.36 437.49 337.37 442.46 343.79 447.52 349.26 452.35 354.21 456.91 358.73 463.9 364.23 477.11 374.53 483.27 380.24 487.47 384 491.36 388.45 494.81 393.68 498.33 398.85 501.31 404.89 503.58 411.87 505.73 418.84 506.94 426.46 507.23 434.57 507.26 442.68 506.33 451.23 504.49 460.01 502.37 468.66 499.39 477.33 495.66 485.68 491.7 493.55 487.07 500.7 481.9 506.72 476.6 511.73 470.82 515.15 464.71 516.62 458.54 516.75 452.08 514.77 445.44 510.68 438.79 505.6 431.99 498.91 425.12 491.06 418.25 483.5 411.33 475.89 404.43 468.85 397.52 463.74 390.96 460.26 384.76 458.48 378.56 458.88 372.71 460.6 367.25 463.22 359.2 469.12 344.88 479.75 338.61 482.49 332.54 483.23 321.97 476.89 317.47 470.38 314.43 465.39 311.77 459.6 309.54 453.22 307.16 446.74 305.25 439.83 303.89 432.61 302.45 425.39 301.7 418.2 301.62 411.08 301.56 403.89 302.22 396.64 303.57 389.3 305.01 381.75 307.15 373.94 309.94 365.87 312.86 357.48 316.4 348.74 320.51 339.77 324.72 330.61 329.47 321.37 334.64 312.33 339.9 303.58 345.55 295.48 351.51 288.46 357.51 282.45 363.78 278.05 370.22 275.63 376.68 274.77 383.29 276.11 389.97 279.72" stroke-dasharray="25 27" transform="rotate(43.03225806451613, 400, 400)" opacity="0.63"></path><path d="M388.84 290.23C400.68 300.01 411.8 314.05 421.88 329.3 432.11 343.17 441.57 355.83 450.04 366.82 459.01 375.33 467.31 383.53 474.5 392.37 482.17 400.38 488.48 410.46 492.49 423.1 496.1 435.74 496.38 449.91 493.61 464.26 489.99 477.89 483.48 490.05 474.85 498.33 465.77 503.46 455.02 502.54 443.42 494.89 431.75 484.98 419.43 471.68 407.08 458.34 394.73 450.92 383.47 448.38 373.58 449.81 363.55 455.82 354.7 461.43 347.25 464.28 339.43 466.68 332.75 464.56 327.53 458.21 321.76 451.05 317.39 440.7 314.98 427.95 312.32 415.21 312.19 401.43 314.38 387 316.82 372.13 321.72 356.01 328.62 339.42 335.83 322.96 344.89 307.46 355.17 295.38 365.57 286.94 376.99 284.78 388.84 290.23" stroke-dasharray="40 29" transform="rotate(44.90322580645161, 400, 400)" opacity="0.63"></path><path d="M388.5 300.74C398.85 309.31 408.74 321.59 417.86 335.27 427.09 348.37 435.75 361.01 443.58 372.47 451.76 382.24 459.29 391.55 465.74 400.88 472.49 409.54 477.97 419.34 481.39 430.54 484.52 441.74 484.84 453.34 482.61 464.22 479.78 474.42 474.48 482.56 467.32 487.01 459.8 489.22 450.74 486.56 440.8 478.92 430.79 470.21 420.08 459.07 409.23 447.84 398.37 441.07 388.36 437.69 379.47 437.28 370.47 440.68 362.43 444.22 355.58 446.14 348.43 448.41 342.29 447.39 337.46 442.82 332.23 437.85 328.27 429.7 326.08 418.72 323.68 407.74 323.49 395.14 325.29 381.6 327.25 367.97 331.3 353.31 337.09 338.68 343.09 324.71 350.71 312.09 359.47 302.79 368.31 296.57 378.14 295.57 388.5 300.74" stroke-dasharray="11 39" transform="rotate(46.774193548387096, 400, 400)" opacity="0.12"></path><path d="M388.98 311.24C397.87 318.59 406.5 329.04 414.56 340.9 422.72 352.72 430.45 364.62 437.47 375.8 444.72 385.99 451.37 395.74 457 405.12 462.8 414.05 467.43 423.35 470.3 432.99 472.95 442.63 473.28 451.68 471.52 459.39 467.24 469.01 449.52 471.67 437.5 462.94 429.13 455.64 420.05 446.59 410.72 437.33 401.38 431.31 392.65 427.47 384.81 425.67 376.88 426.83 369.72 428.32 363.54 428.94 354.4 429.85 340.89 418.88 337.17 406.42 335.06 397.2 334.83 386.27 336.3 374.43 337.84 362.69 341.14 350.27 345.9 338.26 350.79 327.12 357.09 317.46 364.41 310.78 371.79 306.54 380.1 306.46 388.98 311.24" stroke-dasharray="35 37" transform="rotate(48.645161290322584, 400, 400)" opacity="0.85"></path><path d="M390.26 321.75C397.68 327.85 405 336.44 411.92 346.3 418.9 356.42 425.56 366.94 431.64 377.11 437.84 386.82 443.5 396.21 448.24 405.04 453.06 413.62 456.88 422.04 459.21 430.03 459.31 448.68 443.15 454.73 433.46 447.07 426.69 441.29 419.23 434.22 411.44 426.82 403.64 421.64 396.25 417.68 389.52 415 379.64 414.27 363.2 412.83 356.98 408.98 352.98 405.84 349.96 400.57 348.27 393.07 346.46 385.57 346.23 376.64 347.39 367.05 348.57 357.66 351.2 347.94 355.04 338.86 358.94 330.61 364.01 323.78 369.98 319.43 375.98 316.85 382.83 317.47 390.26 321.75" stroke-dasharray="3 8" transform="rotate(50.516129032258064, 400, 400)" opacity="0.65"></path><path d="M392.22 332.26C404.16 342.93 416.09 359.82 426 376.88 436.17 393.5 444.44 409.54 448.11 422.16 451.43 434.78 448.85 441.21 442.03 440.02 434.76 437.81 423.8 428.76 411.34 416.32 398.87 409.38 387.29 404.39 378.35 400.17 369.1 398.49 362.07 392.6 359.36 380.85 356.36 369.1 358.49 354.1 364.45 341.12 370.5 330.66 380.29 326.31 392.22 332.26" stroke-dasharray="5 1" transform="rotate(52.387096774193544, 400, 400)" opacity="0.76"></path><path d="M394.75 342.76C403.75 350.59 412.88 362.93 420.47 375.74 428.17 388.74 434.34 401.38 437.02 410.66 438.6 421.89 423.73 417.65 410.43 405.81 401.09 400.1 392.19 394.64 385.19 389.58 378.04 386.15 372.58 380.43 370.45 371.77 368.15 363.1 369.7 353.25 374.09 345.55 378.5 339.39 385.74 337.67 394.75 342.76" stroke-dasharray="38 40" transform="rotate(54.25806451612903, 400, 400)" opacity="0.23"></path><path d="M397.65 353.27C409.74 364.39 422.41 385.31 425.92 397.41 429.09 409.51 421.16 407.3 408.77 395.3 396.37 388.61 384.41 378.76 381.55 367.3 378.37 355.84 385.56 347.08 397.65 353.27" stroke-dasharray="16 20" transform="rotate(56.12903225806452, 400, 400)" opacity="0.92"></path></g></svg>