<svg width="90" height="90" viewBox="0 0 90 90" fill="none" xmlns="http://www.w3.org/2000/svg">
<g clip-path="url(#clip0_241_71)">
<path fill-rule="evenodd" clip-rule="evenodd" d="M44.9933 89.9823C69.4828 90.3453 89.6262 70.2074 89.9979 44.9992C89.6262 19.7912 69.4828 -0.341652 44.9933 0.0194305C20.5024 -0.341652 0.382992 19.7912 0.00958252 44.9992C0.382992 70.2074 20.5024 90.3453 44.9933 89.9823Z" fill="url(#paint0_radial_241_71)"/>
<path fill-rule="evenodd" clip-rule="evenodd" d="M64.3598 78.526C49.0814 87.3453 32.5164 88.9141 21.9382 83.6408C36.0051 92.0117 53.3217 92.1189 67.4989 83.9592C81.5194 76.0271 90.1502 60.798 89.998 44.3434C89.2913 56.1433 79.6187 69.6849 64.3598 78.526ZM69.8402 9.10818C68.9285 7.56614 67.6753 6.24812 66.1705 5.29319C71.7552 8.24729 76.6637 12.3842 80.569 17.4312C81.2533 18.2971 81.8911 19.1812 82.4904 20.1133C84.1024 22.9519 84.8526 26.2047 84.6955 29.4984C84.3013 41.4782 73.6767 56.0015 56.9368 65.6622C40.1988 75.3212 22.3116 77.2756 11.7366 71.6165C8.82339 70.1172 6.39234 67.8213 4.69207 64.9579L4.62322 64.844C4.18096 63.9566 3.78674 63.0708 3.41341 62.1622C0.93757 56.2291 -0.211575 49.8227 0.0319917 43.3881C0.12344 45.2093 0.625072 46.9792 1.51437 48.5477C6.92435 57.9115 26.5983 56.6827 45.4565 45.798C64.3389 34.8872 75.2502 18.477 69.8402 9.10818ZM50.7159 3.31386C50.5398 3.06316 50.357 2.81238 50.1617 2.61129C47.5992 0.475394 44.2642 -0.408761 41.0176 0.176674C40.4022 0.224613 39.7341 0.292227 39.0754 0.404195C33.2454 1.15646 27.6384 3.08634 22.5104 6.0437C17.4112 8.9532 12.9289 12.8854 9.32672 17.57C8.9325 18.0878 8.55893 18.6124 8.1775 19.1352C6.03667 21.6358 5.13134 25.0006 5.70814 28.2697C5.79302 28.5434 5.90691 28.8421 6.03667 29.091C9.12787 34.455 21.6515 33.0497 33.973 25.9093C46.3155 18.797 53.8073 8.67949 50.7159 3.31386Z" fill="url(#paint1_radial_241_71)"/>
</g>
<defs>
<radialGradient id="paint0_radial_241_71" cx="0" cy="0" r="1" gradientUnits="userSpaceOnUse" gradientTransform="translate(45.0037 45.0009) scale(44.9937 44.9866)">
<stop stop-color="#FEC700"/>
<stop offset="1" stop-color="#FFDB51"/>
</radialGradient>
<radialGradient id="paint1_radial_241_71" cx="0" cy="0" r="1" gradientUnits="userSpaceOnUse" gradientTransform="translate(45 45) scale(44.999 45.0012)">
<stop stop-color="#050007"/>
<stop offset="0.48" stop-color="#050007"/>
<stop offset="1" stop-color="#50504F"/>
</radialGradient>
<clipPath id="clip0_241_71">
<rect width="90" height="90" fill="white"/>
</clipPath>
</defs>
</svg>
