<svg width="35" height="32" viewBox="0 0 35 32" fill="none" xmlns="http://www.w3.org/2000/svg">
<g clip-path="url(#clip0_242_106)">
<path d="M23.9023 4.66625C25.0353 4.66625 25.0353 2.91016 23.9023 2.91016C19.7198 2.91016 16.3172 6.4005 16.3172 10.6908C16.3172 11.853 18.0292 11.853 18.0292 10.6908C18.0292 7.36908 20.6637 4.66625 23.9023 4.66625Z" fill="#1E2B34"/>
<path d="M23.9016 6.30078C21.5413 6.30078 19.6217 8.26995 19.6217 10.691C19.6217 11.8532 21.3336 11.8532 21.3336 10.691C21.3336 9.23854 22.4856 8.05688 23.9016 8.05688C25.0345 8.05688 25.0345 6.30078 23.9016 6.30078Z" fill="#1E2B34"/>
<path d="M29.9364 9.36253H28.2473V0.875119C28.2473 0.390436 27.8638 -0.00292969 27.3913 -0.00292969H0.879935C0.407435 -0.00292969 0.0239563 0.390436 0.0239563 0.875119V19.1003C0.0239563 19.585 0.407435 19.9783 0.879935 19.9783H10.2421L8.80439 22.9274C8.52097 23.5085 8.93412 24.198 9.57021 24.198H18.7006C19.3371 24.198 19.7499 23.5085 19.4665 22.9274L18.0292 19.9783H22.8976V22.15C22.8976 23.2798 23.7931 24.1984 24.8945 24.1984H29.9364C31.037 24.1984 31.9325 23.2798 31.9325 22.15V11.4105C31.9325 10.2812 31.037 9.36253 29.9364 9.36253ZM30.2206 11.4105V12.5817H24.6092V11.4105C24.6092 11.2494 24.7366 11.1182 24.8941 11.1182H29.9364C30.0931 11.1186 30.2206 11.2494 30.2206 11.4105ZM24.6096 14.3381H30.221V19.2228H24.6096V14.3381ZM17.3159 22.4423H10.955L12.1564 19.9787H16.1148L17.3159 22.4423ZM1.73591 18.2222V1.75317H26.5353V9.36253H24.8941C23.7928 9.36253 22.8972 10.2812 22.8972 11.4109V18.2226L1.73591 18.2222ZM29.9364 22.4423H24.8941C24.737 22.4423 24.6092 22.3116 24.6092 22.15V20.9789H30.2206V22.15C30.2206 22.3112 30.0931 22.4423 29.9364 22.4423Z" fill="#1E2B34"/>
</g>
<defs>
<clipPath id="clip0_242_106">
<rect width="35" height="32" fill="white"/>
</clipPath>
</defs>
</svg>
