<svg width="23" height="25" viewBox="0 0 23 25" fill="none" xmlns="http://www.w3.org/2000/svg">
<g clip-path="url(#clip0_242_95)">
<path d="M18.6 0.625H2.4C1.125 0.625 0.125 1.65 0.125 2.9V22.075C0.125 23.35 1.15 24.35 2.4 24.35H18.575C19.85 24.35 20.85 23.325 20.85 22.075V2.9C20.875 1.65 19.85 0.625 18.6 0.625ZM5.875 19.1H5.525C4.9 19.1 4.375 18.6 4.375 17.95C4.375 17.325 4.875 16.8 5.525 16.8H5.875C6.5 16.8 7.025 17.3 7.025 17.95C7.025 18.575 6.525 19.1 5.875 19.1ZM5.875 13.65H5.525C4.9 13.65 4.375 13.15 4.375 12.5C4.375 11.875 4.875 11.35 5.525 11.35H5.875C6.5 11.35 7.025 11.85 7.025 12.5C7.025 13.125 6.525 13.65 5.875 13.65ZM5.875 8.2H5.525C4.9 8.2 4.375 7.7 4.375 7.05C4.375 6.4 4.875 5.9 5.525 5.9H5.875C6.5 5.9 7.025 6.4 7.025 7.05C7.025 7.7 6.525 8.2 5.875 8.2ZM15.475 19.1H9.725C9.1 19.1 8.575 18.6 8.575 17.95C8.575 17.325 9.075 16.8 9.725 16.8H15.5C16.125 16.8 16.65 17.3 16.65 17.95C16.625 18.575 16.1 19.1 15.475 19.1ZM15.475 13.65H9.725C9.1 13.65 8.575 13.15 8.575 12.5C8.575 11.875 9.075 11.35 9.725 11.35H15.5C16.125 11.35 16.65 11.85 16.65 12.5C16.625 13.125 16.1 13.65 15.475 13.65ZM15.475 8.2H9.725C9.1 8.2 8.575 7.7 8.575 7.05C8.575 6.4 9.075 5.9 9.725 5.9H15.5C16.125 5.9 16.65 6.4 16.65 7.05C16.65 7.7 16.1 8.2 15.475 8.2Z" fill="#1E2B34"/>
</g>
<defs>
<clipPath id="clip0_242_95">
<rect width="23" height="25" fill="white"/>
</clipPath>
</defs>
</svg>
