<svg width="24" height="25" viewBox="0 0 24 25" fill="none" xmlns="http://www.w3.org/2000/svg">
<g clip-path="url(#clip0_263_373)">
<path d="M0 -0.0664062H24V11.2846C24 14.4087 22.3493 17.2956 19.6697 18.8578L12.0001 23.3293L4.33031 18.8578C1.65068 17.2956 2.75071e-06 14.4087 2.75071e-06 11.2846L0 -0.0664062Z" fill="#FFDD2D"/>
<path fill-rule="evenodd" clip-rule="evenodd" d="M6.62067 5.78125V9.54771C7.13079 8.96608 8.05831 8.57253 9.11882 8.57253H10.2712V12.951C10.2712 14.1158 9.95774 15.2564 9.49264 15.8173H14.5056C14.0415 15.2558 13.7287 14.1166 13.7287 12.9532V8.57253H14.8812C15.9417 8.57253 16.8692 8.96608 17.3793 9.54771V5.78125H6.62067Z" fill="#333333"/>
</g>
<defs>
<clipPath id="clip0_263_373">
<rect width="24" height="25" fill="white"/>
</clipPath>
</defs>
</svg>
