<svg width="49" height="16" viewBox="0 0 49 16" fill="none" xmlns="http://www.w3.org/2000/svg">
<path d="M31.8372 0.0205078C33.3648 0.0205533 34.602 0.354436 35.3821 0.658203L34.845 3.89941L34.4866 3.73828C33.7711 3.43602 32.8273 3.13257 31.5442 3.16504C29.9848 3.16515 29.286 3.81871 29.2688 4.45703C29.2688 5.15929 30.1152 5.62296 31.4954 6.30957C33.7723 7.37899 34.8262 8.68746 34.8127 10.3955C34.7788 13.5094 32.0817 15.5215 27.9368 15.5215C26.1658 15.5028 24.4593 15.1372 23.5315 14.7217L24.0842 11.3535L24.6038 11.5918C25.8884 12.1514 26.7354 12.3906 28.3108 12.3906C29.4477 12.3906 30.6659 11.927 30.6829 10.9229C30.6829 10.2687 30.1628 9.79095 28.635 9.05469C27.1394 8.33695 25.1409 7.1404 25.1731 4.98438C25.1903 2.06276 27.9371 0.0205078 31.8372 0.0205078ZM48.6917 15.5029H45.0364L44.4436 12.417H39.8069L38.6653 15.4902H34.5198L40.387 1.29395C40.7947 0.320752 41.5099 0.0478754 42.4514 0.0478516H45.5071L48.6917 15.5029ZM21.0608 15.4902H17.1116L19.5823 0H23.5305L21.0608 15.4902ZM13.8108 0.00195312H17.9895L11.7805 15.4756H7.60083L4.05786 2.15918C6.56122 3.45185 8.80429 6.05445 9.51978 8.44922L9.94165 10.5244L13.8108 0V0.00195312ZM42.5471 4.29688C42.5471 4.29688 41.0384 9.3137 40.9563 9.31348H43.7502L42.5471 4.29688Z" fill="#1E2B34"/>
<path d="M8.21669 2.1091C7.93386 0.860246 7.03189 0.0179742 5.80689 0H0.0591926L0 0.303045C4.4836 1.55837 8.24692 5.42103 9.46781 9.05434L8.21669 2.1091Z" fill="#1E2B34"/>
</svg>
