<svg width="24" height="24" viewBox="0 0 24 24" fill="none" xmlns="http://www.w3.org/2000/svg">
<g clip-path="url(#clip0_230_562)">
<path d="M12 12.9795C15.1646 12.9795 17.73 10.4141 17.73 7.24953C17.73 4.08494 15.1646 1.51953 12 1.51953C8.83543 1.51953 6.27002 4.08494 6.27002 7.24953C6.27002 10.4141 8.83543 12.9795 12 12.9795Z" stroke="#9CA3AF" stroke-width="1.5" stroke-miterlimit="10"/>
<path d="M1.5 23.48L1.87 21.43C2.3071 19.0625 3.55974 16.9229 5.41031 15.3828C7.26088 13.8428 9.59246 12.9997 12 13C14.4104 13.0006 16.7443 13.8465 18.5952 15.3905C20.4462 16.9345 21.6971 19.0788 22.13 21.45L22.5 23.5" stroke="#9CA3AF" stroke-width="1.5" stroke-miterlimit="10"/>
</g>
<defs>
<clipPath id="clip0_230_562">
<rect width="24" height="24" fill="white"/>
</clipPath>
</defs>
</svg>
