<svg width="44" height="44" viewBox="0 0 44 44" fill="none" xmlns="http://www.w3.org/2000/svg">
<rect x="0.5" y="0.5" width="43" height="43" rx="21.5" stroke="#CFCFCF"/>
<g clip-path="url(#clip0_217_125)">
<path d="M28.4425 24.145V20.5675C28.4405 18.8595 27.7611 17.2219 26.5533 16.0142C25.3456 14.8064 23.708 14.127 22 14.125C20.292 14.127 18.6544 14.8064 17.4467 16.0142C16.2389 17.2219 15.5595 18.8595 15.5575 20.5675V24.145L14.125 25.5775V27.01H29.875V25.5775L28.4425 24.145Z" stroke="#CFCFCF" stroke-width="1.125" stroke-miterlimit="10"/>
<path d="M24.0175 27.0098C24.1098 27.2487 24.1532 27.5037 24.145 27.7598C24.145 28.3287 23.919 28.8742 23.5168 29.2765C23.1145 29.6788 22.5689 29.9048 22 29.9048C21.4311 29.9048 20.8856 29.6788 20.4833 29.2765C20.081 28.8742 19.855 28.3287 19.855 27.7598C19.8469 27.5037 19.8902 27.2487 19.9825 27.0098" stroke="#CFCFCF" stroke-width="1.125" stroke-miterlimit="10"/>
</g>
<rect x="21" y="9" width="9" height="9" rx="4.5" fill="#1E2B34"/>
<path d="M26.3168 10.9091V16H25.7003V11.5554H25.6705L24.4276 12.3807V11.7543L25.7003 10.9091H26.3168Z" fill="white"/>
<defs>
<clipPath id="clip0_217_125">
<rect width="18" height="18" fill="white" transform="translate(13 13)"/>
</clipPath>
</defs>
</svg>
